<svg width="25" height="24" viewBox="0 0 25 24" fill="red" xmlns="http://www.w3.org/2000/svg">
<mask id="mask0_6_291" style="mask-type:alpha" maskUnits="userSpaceOnUse" x="0" y="0" width="25" height="24">
<rect x="0.771484" y="0.114288" width="23.7714" height="23.7714" fill="#D9D9D9"/>
</mask>
<g mask="url(#mask0_6_291)">
<path d="M10.6381 16.7048H14.3905V15.219H10.6381V16.7048ZM10.6381 12.7429H17.3619V11.2571H10.6381V12.7429ZM7.95242 8.78095H17.3619V7.29523H7.95242V8.78095ZM7.62853 21.4095C6.3944 21.4095 5.34301 20.9768 4.47436 20.1115C3.60571 19.246 3.17139 18.1961 3.17139 16.9618C3.17139 16.04 3.41967 15.2171 3.91623 14.4933C4.41278 13.7696 5.05725 13.2369 5.84964 12.8951H3.24765V11.4097H8.46672V16.6285H6.98101V14.0552C6.30666 14.2 5.75075 14.5422 5.31329 15.0819C4.87583 15.6215 4.6571 16.245 4.6571 16.9524C4.6571 17.7816 4.94764 18.4841 5.52872 19.0601C6.10964 19.6359 6.80957 19.9238 7.62853 19.9238V21.4095ZM10.6381 20.419V18.9333H19.2857C19.362 18.9333 19.4318 18.9016 19.4952 18.838C19.5587 18.7746 19.5905 18.7048 19.5905 18.6285V5.37148C19.5905 5.29521 19.5587 5.22539 19.4952 5.16199C19.4318 5.09844 19.362 5.06666 19.2857 5.06666H6.02866C5.9524 5.06666 5.88257 5.09844 5.81918 5.16199C5.75562 5.22539 5.72384 5.29521 5.72384 5.37148V9.23805H4.23813V5.37148C4.23813 4.87113 4.41146 4.44761 4.75813 4.10095C5.1048 3.75428 5.52831 3.58095 6.02866 3.58095H19.2857C19.7861 3.58095 20.2096 3.75428 20.5562 4.10095C20.9029 4.44761 21.0762 4.87113 21.0762 5.37148V18.6285C21.0762 19.1289 20.9029 19.5524 20.5562 19.899C20.2096 20.2457 19.7861 20.419 19.2857 20.419H10.6381Z" fill="black" fill-opacity="0.75"/>
</g>
</svg>
