<svg xmlns="http://www.w3.org/2000/svg" width="111.999" height="111.999" fill-rule="evenodd" clip-rule="evenodd" image-rendering="optimizeQuality" shape-rendering="geometricPrecision" text-rendering="geometricPrecision" viewBox="0 0 1166.66 1166.66" id="home"><path fill-rule="nonzero" d="M865.29 914.18l-339.92 0c-7.82,0 -14.15,-6.37 -14.15,-14.22l0 -248.31 -79.41 0 0 248.31c0,7.85 -6.42,14.22 -14.24,14.22l-107.22 0c-7.81,0 -14.15,-6.37 -14.15,-14.22l0 -319.75c0,-7.86 6.34,-14.22 14.15,-14.22 7.9,0 14.24,6.36 14.24,14.22l0 305.53 78.75 0 0 -248.31c0,-7.85 6.33,-14.22 14.23,-14.22l107.8 0c7.9,0 14.24,6.37 14.24,14.22l0 248.31 311.44 0 0 -305.53c0,-7.86 6.42,-14.22 14.24,-14.22 7.82,0 14.24,6.36 14.24,14.22l0 319.75c0,7.85 -6.42,14.22 -14.24,14.22z"></path><path fill-rule="nonzero" d="M225.44 587.84c-4.03,0 -7.98,-1.69 -10.78,-4.98 -5.1,-5.96 -4.44,-14.94 1.56,-20.04l358.93 -306.91c5.26,-4.54 13.08,-4.56 18.43,-0.04l356.87 302.4c5.93,5.08 6.67,14.05 1.65,20.05 -5.1,5.98 -14.07,6.73 -20.08,1.65l-347.57 -294.58 -349.79 299.06c-2.63,2.29 -5.93,3.41 -9.22,3.41z"></path><polygon fill-rule="nonzero" points="879.52 460.57 851.05 460.57 851.05 326.35 754.7 326.35 754.7 352.72 726.23 352.72 726.23 297.92 879.52 297.92"></polygon><path fill-rule="nonzero" d="M675.95 752.92l92.57 0 0 -92.59 -92.57 0 0 92.59zm121.04 28.44l-149.51 0 0 -149.47 149.51 0 0 149.47z"></path></svg>