<svg width="800" height="648" viewBox="0 0 800 648" fill="none" xmlns="http://www.w3.org/2000/svg">
<path d="M581.383 641.304H601.772C606.833 641.304 610.326 636.315 608.616 631.537L581.668 558.111C655.237 505.146 703.213 418.743 703.213 321.15C703.213 159.969 572.544 29.2985 411.361 29.2985C250.252 29.2985 119.581 159.969 119.581 321.15C119.581 418.743 167.558 505.146 241.198 558.111L214.251 631.537C212.54 636.243 216.033 641.304 221.024 641.304H581.383Z" fill="#0A66C2" fill-opacity="0.5" stroke="white" stroke-width="4.34783" stroke-miterlimit="10" stroke-linecap="round" stroke-linejoin="round"/>
<path d="M423.124 164.318C425.191 173.657 429.47 185.989 436.883 196.041C450.072 213.863 475.591 217.57 493.344 204.239C493.413 204.168 493.485 204.096 493.557 204.025C494.626 203.241 495.624 202.385 496.622 201.53C496.978 201.673 497.263 201.815 497.62 202.029C495.552 210.013 496.978 207.59 495.339 212.722C470.815 227.55 447.148 215.716 436.954 202.528C424.622 186.56 423.124 164.318 423.124 164.318Z" fill="black" stroke="black" stroke-width="2.6087" stroke-miterlimit="10" stroke-linecap="round" stroke-linejoin="round"/>
<path d="M537.614 106.147C536.973 115.272 535.546 124.396 533.336 133.308C533.051 134.519 532.694 135.803 532.409 137.015C528.346 152.056 522.216 166.456 514.088 179.645C509.455 187.201 504.179 194.33 497.764 200.247C497.336 200.675 496.838 201.102 496.409 201.459C495.412 202.314 494.342 203.17 493.344 203.954C493.273 204.025 493.201 204.096 493.129 204.168C485.857 209.585 477.303 212.223 468.82 212.152C469.105 211.938 469.39 211.653 469.677 211.439C473.668 209.942 477.446 207.732 480.94 204.738C481.012 204.667 481.081 204.595 481.153 204.524C482.222 203.597 483.22 202.671 484.218 201.673C484.646 201.245 485.146 200.746 485.573 200.247C491.99 193.617 497.336 185.49 501.899 177.007C510.025 162.179 516.155 145.925 520.218 129.03C520.575 127.605 520.862 126.25 521.146 124.824C523.283 114.844 524.781 104.578 525.422 94.313C525.851 87.8971 525.779 80.0556 524.64 73.8534C524.568 73.6395 524.568 73.4258 524.496 73.2119C525.566 73.4971 526.636 73.8534 527.633 74.3526C532.551 76.8476 535.618 82.2654 536.757 87.8258C537.97 93.5289 538.04 100.444 537.614 106.147Z" fill="white"/>
<path d="M497.691 209.086C691.237 309.317 669.565 529.739 610.041 542.713C604.624 543.711 599.491 543.641 594.643 542.713C594.215 542.641 593.858 542.572 593.502 542.5C564.558 536.154 545.598 500.298 540.25 489.248C534.617 530.309 532.052 593.256 529.2 641.233H252.319C254.172 618.137 256.952 590.619 259.589 568.091C259.589 568.091 260.589 566.096 260.874 565.882C268.572 559.609 368.802 476.059 434.887 360.502C454.848 325.572 476.163 289.856 484.858 251.432C485.002 251.004 485.074 250.504 485.145 250.076C490.135 235.606 494.341 221.563 497.263 208.944C497.478 208.944 497.548 209.015 497.691 209.086Z" fill="white"/>
<path d="M222.378 319.37C192.366 309.461 161.712 298.696 148.952 291.924C132.484 283.226 116.444 272.32 106.535 256.565C96.6262 240.809 94.1312 219.209 104.539 203.811C112.452 192.12 126.353 185.704 140.326 183.708C154.298 181.712 168.413 183.637 182.386 185.562C207.978 189.055 233.57 192.548 259.163 196.112C339.148 190.267 376.074 187.415 393.041 186.061V186.203C388.622 281.015 446.863 344.035 446.863 343.82L439.876 357.722C373.794 475.133 267.289 564.67 259.589 571.087C259.304 571.3 259.163 571.443 259.163 571.443C273.278 448.543 295.448 342.465 295.448 342.465C295.448 342.465 259.448 331.63 222.378 319.37Z" fill="white"/>
<path d="M401.383 535.157C381.564 549.557 357.825 558.968 332.09 561.392C353.69 556.115 373.722 546.207 391.403 532.733C394.825 533.233 398.175 533.946 401.383 535.157Z" fill="#0A66C2" fill-opacity="0.5"/>
<path d="M533.407 44.4829C551.3 70.0753 550.659 108.499 532.837 137.086L532.409 136.943C532.765 135.731 533.05 134.448 533.335 133.236C535.474 124.325 536.972 115.272 537.613 106.076C538.039 100.372 537.97 93.4577 536.828 87.8972C535.618 82.3368 532.622 76.919 527.705 74.4238C522.998 72.0001 517.437 72.5703 512.305 73.7822C507.172 74.9942 502.039 76.7051 496.835 76.4199C484.789 75.8496 475.165 65.0851 463.331 63.1603C451.498 61.3068 439.807 68.7207 432.82 78.7725C425.833 88.824 422.768 102.226 419.702 114.131C418.276 111.779 416.85 109.426 414.854 107.573C412.859 105.719 410.15 104.436 407.441 104.65C405.446 104.864 403.591 105.862 402.094 107.359C399.528 91.1051 401.239 74.1388 406.941 58.7405C412.859 42.7007 423.196 28.3718 436.454 17.8926C435.813 22.8114 440.163 28.0155 444.724 29.5838C449.359 31.152 454.92 28.9422 457.272 24.5936C458.983 21.457 459.054 17.6074 458.198 14.1856C457.344 10.6925 455.702 7.48457 454.063 4.3479C484.574 4.77562 515.513 18.8906 533.407 44.4829Z" fill="black"/>
<path d="M325.174 391.154L323.535 399.211C306.283 388.946 295.376 369.554 296.874 348.17C296.946 346.744 297.159 345.317 297.303 343.891C297.303 343.891 297.303 343.891 297.303 343.82C297.516 363.852 308.566 381.674 325.174 391.154Z" fill="#0A66C2" fill-opacity="0.5"/>
<path d="M359.892 406.339C384.844 402.633 404.805 381.959 406.585 355.798C406.657 354.372 406.729 352.946 406.729 351.52L379.64 359.148C379.64 359.148 354.333 392.154 355.044 393.437C355.757 394.578 359.892 406.339 359.892 406.339Z" fill="#0A66C2" fill-opacity="0.5"/>
<path d="M355.043 351.591C345.563 351.591 337.65 345.033 335.582 336.193C337.65 327.352 345.563 320.793 355.043 320.793C364.526 320.793 372.439 327.352 374.506 336.193C372.439 345.033 364.526 351.591 355.043 351.591ZM357.326 418.959L359.891 406.339L361.602 397.928L361.745 397.572C386.126 393.365 405.446 372.976 407.226 347.172C409.365 316.874 386.482 290.567 356.185 288.5C325.887 286.435 299.582 309.246 297.515 339.543C297.443 340.97 297.372 342.465 297.372 343.891C297.515 363.924 308.565 381.746 325.174 391.226L323.535 399.283L301.08 510.848L338.791 511.204L339.432 507.924L343.709 486.752L345.991 475.633L347.63 467.648L354.117 435.354L355.828 426.728" fill="white"/>
<path d="M357.326 418.959L359.891 406.339L361.602 397.928L361.745 397.572C386.126 393.365 405.446 372.976 407.226 347.172C409.365 316.874 386.482 290.567 356.185 288.5C325.887 286.435 299.582 309.246 297.515 339.543C297.443 340.97 297.372 342.465 297.372 343.891C297.515 363.924 308.565 381.746 325.174 391.226L323.535 399.283L301.08 510.848L338.791 511.204L339.432 507.924L343.709 486.752L345.991 475.633L347.63 467.648L354.117 435.354L355.828 426.728M355.043 351.591C345.563 351.591 337.65 345.033 335.582 336.193C337.65 327.352 345.563 320.793 355.043 320.793C364.526 320.793 372.439 327.352 374.506 336.193C372.439 345.033 364.526 351.591 355.043 351.591Z" stroke="#0A66C2" stroke-opacity="0.5" stroke-width="2.6087" stroke-miterlimit="10" stroke-linecap="round" stroke-linejoin="round"/>
<path d="M375.076 331.559C375.076 333.128 374.863 334.696 374.506 336.193C372.439 327.352 364.526 320.793 355.043 320.793C345.563 320.793 337.65 327.352 335.582 336.193C335.226 334.696 335.013 333.198 335.013 331.559C335.013 320.509 343.995 311.598 355.043 311.598C366.093 311.598 375.076 320.509 375.076 331.559Z" fill="#0A66C2" fill-opacity="0.5"/>
<path d="M295.52 342.394C295.52 342.394 282.546 404.557 270.07 488.82C267.217 508.28 264.367 528.954 261.728 550.27C261.3 550.057 260.874 549.772 260.446 549.557C259.233 548.844 257.95 548.346 256.596 547.774C256.167 547.633 255.741 547.417 255.313 547.276C257.665 528.813 260.161 510.989 262.654 494.024C275.059 409.761 288.035 347.598 288.035 347.598C288.035 347.598 253.033 337.12 216.532 325.072C218.385 323.076 220.311 321.222 222.307 319.298C222.378 319.298 222.378 319.298 222.45 319.37C259.448 331.63 295.52 342.394 295.52 342.394Z" fill="white"/>
<path d="M540.963 279.235C547.224 279.235 552.298 274.159 552.298 267.9C552.298 261.639 547.224 256.565 540.963 256.565C534.702 256.565 529.628 261.639 529.628 267.9C529.628 274.159 534.702 279.235 540.963 279.235Z" stroke="#0A66C2" stroke-opacity="0.5" stroke-width="2.6087" stroke-miterlimit="10" stroke-linecap="round" stroke-linejoin="round"/>
<path d="M554.365 212.294C564.443 212.294 572.615 204.124 572.615 194.045C572.615 183.966 564.443 175.795 554.365 175.795C544.286 175.795 536.115 183.966 536.115 194.045C536.115 204.124 544.286 212.294 554.365 212.294Z" stroke="black" stroke-width="2.6087" stroke-miterlimit="10" stroke-linecap="round" stroke-linejoin="round"/>
<path d="M565.344 233.752C568.335 233.752 570.761 231.326 570.761 228.335C570.761 225.341 568.335 222.917 565.344 222.917C562.352 222.917 559.926 225.341 559.926 228.335C559.926 231.326 562.352 233.752 565.344 233.752Z" stroke="white" stroke-width="2.6087" stroke-miterlimit="10" stroke-linecap="round" stroke-linejoin="round"/>
<path d="M306.354 73.2834C311.274 69.5765 317.476 67.3665 324.107 67.3665C340.43 67.3665 353.62 80.5547 353.62 96.8797C353.62 113.204 340.43 126.393 324.107 126.393C307.78 126.393 294.591 113.204 294.591 96.8797C294.591 90.6775 296.517 84.9745 299.726 80.2695" stroke="white" stroke-width="2.6087" stroke-miterlimit="10" stroke-linecap="round" stroke-linejoin="round"/>
<path d="M350.839 151.486C355.407 151.486 359.109 147.784 359.109 143.217C359.109 138.65 355.407 134.947 350.839 134.947C346.272 134.947 342.57 138.65 342.57 143.217C342.57 147.784 346.272 151.486 350.839 151.486Z" stroke="white" stroke-width="2.6087" stroke-miterlimit="10" stroke-linecap="round" stroke-linejoin="round"/>
<path d="M496.693 201.53C497.122 201.102 497.619 200.746 498.048 200.318C504.463 194.401 509.811 187.201 514.372 179.716C523.141 165.458 529.628 149.704 533.691 133.379C535.83 124.468 537.328 115.414 537.969 106.218C538.396 100.515 538.326 93.6004 537.185 88.0399C535.974 82.4793 532.978 77.0615 528.061 74.5665C523.354 72.1428 517.793 72.713 512.661 73.9249C507.528 75.1367 502.396 76.8478 497.191 76.5625C485.146 75.9921 475.522 65.2278 463.687 63.303C451.852 61.4495 440.163 68.8634 433.176 78.9149C426.189 88.9667 423.124 102.369 420.059 114.274" stroke="black" stroke-width="2.6087" stroke-miterlimit="10" stroke-linecap="round" stroke-linejoin="round"/>
<path d="M423.124 164.318C425.191 173.657 429.47 185.989 436.883 196.041C450.072 213.863 475.591 217.57 493.344 204.239C493.413 204.168 493.485 204.096 493.557 204.025C494.626 203.241 495.624 202.385 496.622 201.53" stroke="black" stroke-width="2.6087" stroke-miterlimit="10" stroke-linecap="round" stroke-linejoin="round"/>
<path d="M402.309 107.502C399.742 91.2478 401.453 74.2813 407.157 58.8833C413.072 42.8435 423.409 28.5146 436.67 18.0353C436.029 22.9541 440.377 28.1581 444.94 29.7265C449.501 31.2948 455.133 29.0848 457.485 24.7363C459.196 21.5997 459.268 17.7501 458.412 14.3283C457.557 10.8352 455.918 7.62727 454.277 4.4906C485.003 4.84706 515.942 18.962 533.764 44.5544C551.585 70.1468 551.016 108.571 533.194 137.157" stroke="black" stroke-width="2.6087" stroke-miterlimit="10" stroke-linecap="round" stroke-linejoin="round"/>
<path d="M419.917 114.273C418.491 111.921 417.065 109.568 415.07 107.715C413.072 105.861 410.363 104.578 407.654 104.792C405.159 105.006 402.95 106.574 401.452 108.57C399.957 110.566 399.1 112.99 398.53 115.414C396.82 122.685 397.533 130.598 400.598 137.442C402.024 140.721 404.02 143.786 406.941 145.854C409.865 147.921 413.715 148.777 417.065 147.422" stroke="black" stroke-width="2.6087" stroke-miterlimit="10" stroke-linecap="round" stroke-linejoin="round"/>
<path d="M486.499 134.947C486.499 134.947 495.195 141.933 492.986 147.993C490.775 154.124 477.873 150.274 477.873 150.274" stroke="black" stroke-width="2.6087" stroke-miterlimit="10" stroke-linecap="round" stroke-linejoin="round"/>
<path d="M460.479 151.272C463.759 160.254 471.885 167.312 481.224 169.308" stroke="black" stroke-width="2.6087" stroke-miterlimit="10" stroke-linecap="round" stroke-linejoin="round"/>
<path d="M497.691 208.658C691.665 309.174 672.846 523.965 610.398 543.57C572.115 550.698 546.881 502.935 540.607 489.889" stroke="#0A66C2" stroke-opacity="0.5" stroke-width="2.6087" stroke-miterlimit="10" stroke-linecap="round" stroke-linejoin="round"/>
<path d="M221.807 319.154C192.08 309.389 161.926 298.696 149.308 292.065C132.84 283.367 116.801 272.461 106.892 256.707C96.9827 240.952 94.4877 219.352 104.896 203.954C112.809 192.262 126.71 185.847 140.682 183.85C154.654 181.854 168.769 183.779 182.742 185.704C208.334 189.197 233.926 192.69 259.52 196.255C338.933 190.48 375.861 187.629 392.97 186.274" stroke="#0A66C2" stroke-opacity="0.5" stroke-width="2.6087" stroke-miterlimit="10" stroke-linecap="round" stroke-linejoin="round"/>
<path d="M416.921 147.351C415.425 153.981 411.219 174.013 402.236 182.353" stroke="black" stroke-width="2.6087" stroke-miterlimit="10" stroke-linecap="round" stroke-linejoin="round"/>
<path d="M498.12 200.318C497.976 200.888 497.835 201.459 497.691 202.029" stroke="black" stroke-width="2.6087" stroke-miterlimit="10" stroke-linecap="round" stroke-linejoin="round"/>
<path d="M393.397 186.132C388.978 280.944 444.297 342.324 444.297 342.039" stroke="black" stroke-width="2.6087" stroke-miterlimit="10" stroke-linecap="round" stroke-linejoin="round"/>
<path d="M484.859 245.159C476.163 284.224 457.272 324.074 444.296 342.109C444.296 342.109 388.622 281.015 392.97 186.203C393.113 186.203 393.254 186.203 393.326 186.203C393.398 186.203 393.539 186.203 393.611 186.203C396.891 186.203 399.741 184.777 402.237 182.425L402.45 182.995C402.806 203.811 409.937 224.485 422.626 241.024C427.187 247.011 432.535 252.572 439.022 256.35C445.509 260.2 453.278 262.196 460.693 260.913C470.317 259.202 478.159 252.359 484.859 245.159Z" fill="black" stroke="black" stroke-width="2.6087" stroke-miterlimit="10" stroke-linecap="round" stroke-linejoin="round"/>
<path d="M402.309 182.353L402.166 182.068" stroke="black" stroke-width="2.6087" stroke-miterlimit="10" stroke-linecap="round" stroke-linejoin="round"/>
<path d="M485.43 244.587C485.214 244.802 485.073 244.944 484.93 245.159" stroke="black" stroke-width="2.6087" stroke-miterlimit="10" stroke-linecap="round" stroke-linejoin="round"/>
<path d="M500.471 198.251C498.476 204.952 490.134 235.82 487.426 243.376" stroke="black" stroke-width="2.6087" stroke-miterlimit="10" stroke-linecap="round" stroke-linejoin="round"/>
<path d="M237.633 341.611C260.59 317.515 288.392 299.837 320.329 289.785C284.755 291.709 250.038 306.609 224.303 331.061C228.938 334.054 233.001 338.687 237.633 341.611Z" fill="#0A66C2" fill-opacity="0.5"/>
<path d="M680.615 433.071C683.254 434.498 685.25 436.352 686.532 438.704C694.945 454.602 666.002 486.539 621.804 509.991C577.604 533.517 534.974 539.648 526.491 523.75C525.422 521.682 524.924 519.402 525.065 516.835L525.137 515.837C526.848 498.728 553.509 472.495 591.222 452.463C628.648 432.574 665.004 425.089 680.402 432.93L680.615 433.071Z" fill="#0A66C2" fill-opacity="0.5"/>
<path d="M606.404 390.513L680.402 432.93C665.076 425.089 628.717 432.502 591.222 452.463C553.439 472.496 526.848 498.728 525.137 515.837L532.337 407.409L534.048 381.817C532.622 379.109 537.113 373.833 544.313 369.698C544.385 369.841 544.456 369.983 544.528 370.054C545.811 372.478 548.876 373.689 551.798 373.689C554.008 373.689 556.076 373.048 558.143 372.335C557.217 373.689 556.432 375.187 555.719 376.685C554.721 378.752 553.937 381.176 554.721 383.313C555.719 385.952 558.928 387.307 561.708 387.022C564.487 386.735 567.126 385.311 569.621 383.885C573.754 381.461 577.889 379.037 582.095 376.685L586.515 379.25C580.885 383.457 575.68 388.517 572.828 395.076C572.115 396.715 571.545 398.426 571.617 400.209C571.689 401.991 572.543 403.774 574.041 404.628C575.395 405.341 577.106 405.128 578.602 404.772C583.022 403.489 596.139 387.022 606.404 390.513Z" fill="#0A66C2" fill-opacity="0.5"/>
<path d="M605.335 380.391C606.335 383.244 606.405 387.52 606.405 390.585C596.068 387.022 583.022 403.489 578.533 404.628C577.035 404.985 575.396 405.27 573.97 404.487C572.472 403.702 571.618 401.848 571.546 400.067C571.474 398.285 572.044 396.574 572.757 394.935C575.609 388.376 580.814 383.313 586.444 379.109C587.3 378.465 588.085 377.896 588.94 377.326C590.437 376.328 592.077 375.259 593.787 374.617C595.642 373.904 597.637 373.548 599.561 374.189C602.342 374.974 604.337 377.539 605.335 380.391Z" fill="#0A66C2" fill-opacity="0.5"/>
<path d="M582.023 376.613C577.891 379.037 573.684 381.461 569.55 383.813C567.054 385.239 564.489 386.735 561.636 386.95C558.784 387.163 555.576 385.88 554.65 383.243C553.865 381.104 554.65 378.68 555.647 376.613C556.36 375.115 557.217 373.689 558.071 372.265C563.204 364.493 571.117 358.72 579.53 354.585C581.739 353.515 583.949 352.589 586.373 352.161C588.726 351.733 591.291 351.948 593.43 353.087C596.995 355.013 598.706 359.433 598.421 363.424C598.136 367.487 596.139 371.196 593.786 374.474V374.546C592.076 375.187 590.436 376.256 588.939 377.254C588.084 377.824 587.228 378.467 586.445 379.037L582.023 376.613Z" fill="#0A66C2" fill-opacity="0.5"/>
<path d="M584.663 344.533C586.587 346.6 587.443 349.596 586.515 352.233C584.091 352.661 581.882 353.587 579.671 354.656C571.261 358.719 563.347 364.565 558.215 372.335C556.147 373.048 554.08 373.689 551.869 373.689C548.948 373.689 545.882 372.478 544.598 370.054C544.528 369.911 544.456 369.77 544.384 369.698C543.387 367.346 544.1 364.565 545.169 362.213C547.378 357.222 550.8 352.802 555.078 349.239C558.713 346.174 562.919 343.819 567.554 342.324C569.406 341.683 571.332 341.254 573.328 341.041C574.397 340.898 575.537 340.898 576.606 340.969C579.53 341.183 582.595 342.324 584.663 344.533Z" fill="#0A66C2" fill-opacity="0.5"/>
<path d="M551.228 341.967C546.095 341.467 541.106 339.828 536.684 337.048C535.261 336.122 533.906 335.124 532.906 333.77C531.908 332.415 531.339 330.704 531.624 329.063C531.908 327.567 532.837 326.283 533.976 325.357C535.117 324.43 536.543 323.789 537.969 323.289C538.967 322.933 539.893 322.648 540.891 322.435C546.095 321.222 551.656 321.365 556.717 323.148C562.706 325.215 567.98 329.563 570.976 335.193C571.83 336.835 572.543 338.546 572.971 340.328L573.113 341.111C571.189 341.326 569.265 341.752 567.339 342.396C562.776 343.891 558.5 346.244 554.865 349.309L551.228 341.967Z" fill="#0A66C2" fill-opacity="0.5"/>
<path d="M555.007 349.167C550.731 352.731 547.309 357.152 545.098 362.141C544.029 364.494 543.315 367.274 544.313 369.626C543.102 370.339 542.033 371.052 540.963 371.765C539.039 373.191 537.398 374.617 536.187 375.972C534.192 378.252 533.335 380.32 534.048 381.746L514.659 344.676L502.039 320.58L501.398 319.37C500.685 317.872 501.613 315.733 503.75 313.38C504.963 312.026 506.602 310.6 508.526 309.246C510.024 308.176 511.735 307.178 513.518 306.252C521.715 301.974 529.7 300.835 531.268 303.828C531.483 304.185 531.696 304.683 531.909 305.039L531.981 305.183L532.052 305.324L532.265 305.752L540.892 322.291C539.894 322.504 538.896 322.791 537.97 323.148C536.544 323.646 535.118 324.287 533.976 325.215C532.765 326.141 531.839 327.496 531.624 328.922C531.339 330.561 531.909 332.272 532.907 333.626C533.907 334.98 535.261 336.05 536.685 336.907C541.035 339.685 546.096 341.396 551.229 341.824L555.007 349.167Z" fill="#0A66C2" fill-opacity="0.5"/>
<path d="M540.964 371.765C539.04 373.191 537.398 374.618 536.187 375.972L503.75 313.452C504.964 312.098 506.603 310.672 508.527 309.318L540.964 371.765Z" fill="white"/>
<path d="M562.634 470.713C575.232 470.713 585.445 460.5 585.445 447.9C585.445 435.302 575.232 425.089 562.634 425.089C550.034 425.089 539.821 435.302 539.821 447.9C539.821 460.5 550.034 470.713 562.634 470.713Z" stroke="black" stroke-width="2.6087" stroke-miterlimit="10" stroke-linecap="round" stroke-linejoin="round"/>
<path d="M581.382 434.926L616.456 410.617L609.115 400.137" stroke="black" stroke-width="2.6087" stroke-miterlimit="10" stroke-linecap="round" stroke-linejoin="round"/>
<path d="M607.261 416.961L601.628 408.907" stroke="black" stroke-width="2.6087" stroke-miterlimit="10" stroke-linecap="round" stroke-linejoin="round"/>
<path d="M536.188 375.972L533.835 497.374L551.229 477.341L540.964 371.765L536.188 375.972Z" fill="white"/>
<path d="M531.98 305.111C531.767 304.683 531.483 304.257 531.339 303.9C529.772 300.904 521.859 302.046 513.589 306.324C505.391 310.6 499.972 316.518 501.469 319.439L502.111 320.652L491.702 317.087L491.417 317.015C490.206 316.589 489.278 315.948 488.78 315.02C486.428 310.459 494.698 301.404 507.387 294.774C520.076 288.146 532.265 286.435 534.617 290.996C535.046 291.781 535.117 292.635 534.904 293.635L534.761 294.133L532.196 305.824L531.98 305.396L531.909 305.254L531.98 305.111Z" fill="#0A66C2" fill-opacity="0.5"/>
<path d="M523.782 288.572C523.497 293.563 523.213 298.48 522.928 303.472C525.28 303.115 527.989 302.544 530.341 303.044C530.839 298.48 531.839 293.848 532.336 289.285C529.484 288.215 526.776 287.717 523.782 288.572Z" fill="white"/>
<path d="M514.658 344.676L534.048 381.746L532.337 407.337C527.132 404.7 522.998 399.924 521.145 394.363C518.935 387.591 519.932 379.963 516.654 373.689C513.232 367.13 506.032 363.709 500.685 358.576C498.761 356.724 496.978 354.513 496.193 351.948C495.48 349.38 495.908 346.315 497.904 344.461C500.258 342.252 503.893 342.393 507.03 342.893C509.667 343.393 512.163 343.963 514.658 344.676Z" fill="#0A66C2" fill-opacity="0.5"/>
<path d="M507.386 247.652C502.325 246.726 496.408 255.922 494.125 268.255C491.845 280.587 494.125 291.352 499.188 292.278C504.249 293.207 510.167 284.009 512.447 271.676C514.728 259.344 512.447 248.581 507.386 247.652ZM507.599 270.75C506.102 278.948 502.967 285.15 500.543 284.722C498.191 284.296 497.478 277.309 498.973 269.111C500.471 260.913 503.608 254.711 506.032 255.137C508.384 255.637 509.097 262.624 507.599 270.75Z" fill="white"/>
<path d="M441.802 233.681L439.307 233.111C439.022 233.039 438.737 233.039 438.452 233.111C438.381 233.111 438.309 233.111 438.165 233.181C437.952 233.252 437.739 233.324 437.524 233.396C437.383 233.468 437.311 233.468 437.239 233.537C436.385 233.965 435.528 234.75 434.744 235.82C434.674 235.961 434.531 236.104 434.459 236.248C434.387 236.389 434.246 236.533 434.174 236.674C433.961 236.959 433.746 237.315 433.604 237.602C433.248 238.244 432.82 239.026 432.535 239.811C432.463 240.026 432.32 240.239 432.25 240.381C432.178 240.596 432.035 240.881 431.963 241.094C431.894 241.237 431.822 241.45 431.75 241.594C431.109 243.304 430.539 245.228 430.111 247.226L427.117 246.583C427.187 246.226 427.259 245.87 427.331 245.444C427.402 245.159 427.402 244.872 427.472 244.659C427.544 244.302 427.615 243.874 427.687 243.518C427.759 243.02 427.828 242.448 427.9 241.95C427.972 241.45 428.044 240.881 428.044 240.381C428.115 239.811 428.115 239.313 428.185 238.741C428.185 238.67 428.185 238.67 428.185 238.6C428.185 238.1 428.257 237.602 428.257 237.102C428.4 233.824 428.328 230.472 427.972 227.05C426.546 213.15 420.915 201.458 412.931 193.973C412.931 193.831 412.931 193.688 412.931 193.546C412.787 191.692 412.146 189.91 411.22 188.341C411.22 188.341 411.22 188.27 411.148 188.27C426.689 191.906 439.235 208.017 441.446 229.831C441.587 231.185 441.731 232.47 441.802 233.681Z" fill="white"/>
<path d="M434.887 265.83C428.97 277.095 419.561 285.222 408.368 287.787C404.02 288.787 399.316 289.428 395.25 288.572L383.559 286.789C387.124 287.289 390.759 287.145 394.468 286.291C394.824 286.219 395.25 286.076 395.607 286.006C395.822 285.935 395.963 285.935 396.179 285.863C397.176 285.578 398.103 285.222 399.1 284.865C399.457 284.722 399.885 284.58 400.242 284.365C400.67 284.152 401.096 283.939 401.596 283.724C401.809 283.582 402.094 283.511 402.309 283.367C402.45 283.298 402.522 283.226 402.666 283.154C402.879 283.082 403.094 282.941 403.307 282.798C403.592 282.654 403.876 282.513 404.092 282.298C404.376 282.156 404.661 282.013 404.874 281.8C405.446 281.443 405.944 281.087 406.444 280.73C406.872 280.445 407.298 280.089 407.726 279.804C408.868 278.948 410.007 277.95 411.076 276.952C411.361 276.667 411.648 276.452 411.933 276.167C412.787 275.313 413.644 274.385 414.498 273.387C414.783 273.03 415.07 272.674 415.355 272.319C415.711 271.891 416.068 271.391 416.424 270.963C416.781 270.537 417.066 270.109 417.422 269.609C417.422 269.539 417.494 269.539 417.563 269.467C417.85 269.039 418.135 268.611 418.42 268.185C418.633 267.898 418.848 267.541 419.061 267.185C419.133 267.043 419.205 266.972 419.274 266.828C419.346 266.687 419.49 266.543 419.561 266.402C419.774 265.974 419.987 265.617 420.272 265.189C420.487 264.832 420.7 264.406 420.916 264.05C421.272 263.406 421.629 262.695 421.913 262.052C422.198 261.554 422.411 260.985 422.696 260.413C422.911 259.985 423.053 259.628 423.268 259.202C423.34 258.987 423.409 258.774 423.553 258.561C423.696 258.204 423.837 257.917 423.981 257.561L424.122 257.135C424.194 256.919 424.337 256.635 424.407 256.422C424.479 256.278 424.55 256.137 424.55 255.993C424.694 255.709 424.763 255.424 424.835 255.139C424.907 254.995 424.907 254.852 424.979 254.711C425.12 254.354 425.192 253.998 425.335 253.641C425.62 252.715 425.905 251.787 426.118 250.789C426.19 250.432 426.333 250.076 426.405 249.719C426.474 249.293 426.618 248.937 426.69 248.509C426.761 248.152 426.831 247.867 426.903 247.511C426.974 247.154 427.046 246.726 427.118 246.369L430.111 247.011C430.04 247.295 429.968 247.582 429.968 247.867C429.54 250.361 429.326 252.715 429.326 254.852C429.326 255.424 429.326 255.993 429.398 256.493C429.398 256.635 429.398 256.706 429.398 256.778C429.398 257.063 429.47 257.419 429.47 257.704C429.47 257.989 429.54 258.345 429.54 258.561C429.54 258.774 429.611 258.917 429.611 259.13C429.683 259.628 429.826 260.128 429.896 260.628C429.968 260.841 429.968 260.985 430.04 261.126C430.183 261.626 430.324 262.052 430.54 262.409C430.609 262.552 430.681 262.765 430.753 262.909C430.824 263.122 430.966 263.265 431.037 263.406C431.109 263.55 431.253 263.693 431.322 263.835C431.322 263.906 431.394 263.906 431.466 263.978C431.537 264.119 431.679 264.191 431.75 264.263C431.894 264.406 431.963 264.476 432.107 264.619C432.392 264.832 432.607 264.976 432.892 265.048L434.887 265.83Z" fill="white"/>
<path d="M412.93 194.116C420.915 201.601 426.545 213.221 427.971 227.193C428.684 233.896 428.328 240.452 427.117 246.726C423.267 266.546 410.719 282.726 394.467 286.435C390.758 287.289 387.052 287.433 383.558 286.933H383.345C368.019 284.652 355.186 270.322 351.48 250.22C351.123 248.509 350.908 246.726 350.695 244.943C350.339 241.309 350.267 237.674 350.482 234.109L350.554 234.037C350.839 234.393 351.123 234.75 351.408 234.963C353.332 236.32 355.899 236.389 358.11 235.748C360.319 235.106 362.315 233.752 364.169 232.326C364.525 232.041 364.882 231.756 365.239 231.472C364.739 234.75 364.667 238.172 365.023 241.665C366.734 258.702 378.497 270.252 391.543 267.97C391.899 267.9 392.256 267.828 392.541 267.756C406.015 264.691 415.425 248.009 413.571 230.543C412.502 219.85 407.441 211.296 400.597 207.019C396.247 204.31 391.186 203.241 386.054 204.453C385.056 204.667 384.13 204.952 383.202 205.308C385.056 199.676 385.841 193.475 383.489 188.057C383.202 187.415 382.845 186.773 382.491 186.132C381.919 185.205 381.206 184.278 380.423 183.494L380.708 183.209C387.765 179.146 396.891 178.861 404.16 182.496C406.941 183.851 409.508 185.847 411.147 188.413C411.147 188.413 411.147 188.484 411.219 188.484C412.217 190.053 412.786 191.835 412.93 193.688C412.93 193.76 412.93 193.902 412.93 194.116Z" fill="#0A66C2" fill-opacity="0.5"/>
<path d="M403.877 198.607C404.733 198.322 405.374 197.537 405.731 196.611C406.016 195.755 406.087 194.757 406.016 193.902C405.731 189.197 403.663 184.634 400.313 181.355C405.446 181.783 410.222 185.347 411.933 190.195C412.503 191.834 412.787 193.688 412.218 195.399C411.718 196.753 410.72 197.965 409.366 198.535C408.083 199.177 406.516 199.248 405.09 198.749" fill="white"/>
<path d="M400.671 206.876C400.314 206.948 399.958 207.019 399.671 207.09C386.268 210.156 376.788 226.837 378.642 244.374C379.712 255.067 384.773 263.622 391.616 267.898C378.571 270.18 366.807 258.63 365.097 241.593C364.74 238.1 364.812 234.678 365.312 231.4C373.223 224.983 379.355 216.286 382.847 206.663C382.99 206.163 383.203 205.665 383.347 205.237C384.273 204.88 385.201 204.595 386.199 204.381C391.26 203.098 396.321 204.167 400.671 206.876Z" fill="#0A66C2" fill-opacity="0.5"/>
<path d="M383.203 205.166C383.061 205.664 382.846 206.164 382.705 206.591C379.211 216.215 373.081 224.841 365.168 231.328C364.811 231.613 364.455 231.898 364.098 232.183C362.244 233.609 360.32 234.963 358.04 235.604C357.755 235.676 357.468 235.748 357.183 235.82C355.187 236.248 353.048 235.961 351.409 234.822C351.053 234.607 350.768 234.25 350.555 233.894C349.27 232.113 348.914 228.904 349.627 227.122C350.055 226.552 350.483 225.981 350.909 225.411C358.466 214.718 362.672 201.672 362.744 188.556C362.744 185.633 362.531 182.567 361.603 179.787L362.816 179.644C366.594 178.005 371.014 178.005 374.792 179.502C376.003 180.001 377.072 180.571 378.142 181.355C378.927 181.926 379.711 182.567 380.424 183.351C381.207 184.136 381.848 185.062 382.492 185.989C382.846 186.631 383.203 187.201 383.49 187.914C385.842 193.332 385.057 199.534 383.203 205.166Z" fill="#0A66C2" fill-opacity="0.5"/>
<path d="M350.696 244.872C350.909 246.654 351.125 248.437 351.481 250.148L348.842 250.648C334.372 251.717 319.757 250.861 305.501 248.08C264.012 275.954 200.065 283.867 152.659 269.183C142.465 266.046 132.413 261.767 124.429 254.496C116.516 247.226 110.956 236.461 111.954 225.483C113.166 211.51 124.643 200.389 137.332 195.613C150.021 190.765 163.922 190.979 177.467 191.05C212.398 191.264 249.609 202.457 281.192 187.058C287.107 184.207 292.24 180.001 298.016 176.864C303.79 173.728 310.49 171.732 316.764 173.585C320.899 174.797 324.32 177.72 326.744 181.355L328.383 180.999C330.879 179.43 333.375 177.791 335.868 176.223C336.796 175.652 337.794 175.011 338.72 174.44C340.716 173.228 342.783 172.159 345.066 171.589C349.983 170.306 355.688 171.446 358.966 175.367C360.107 176.65 360.89 178.147 361.39 179.787C362.316 182.496 362.531 185.633 362.531 188.555C362.459 201.672 358.253 214.718 350.696 225.411C350.696 225.411 350.696 225.411 350.696 225.483C350.268 226.052 349.842 226.624 349.414 227.193C348.629 228.976 349.057 232.183 350.34 233.965L350.268 234.037C350.199 237.602 350.268 241.165 350.696 244.872Z" fill="#0A66C2" fill-opacity="0.5"/>
<path d="M350.909 225.411C353.689 215.003 354.831 204.238 354.402 193.474C354.189 189.268 353.761 184.991 351.552 181.426C349.27 177.648 345.135 175.01 340.715 174.583C340.074 174.511 339.433 174.511 338.863 174.511C340.859 173.3 342.926 172.23 345.207 171.66C350.126 170.377 355.829 171.517 359.109 175.438C360.248 176.721 361.033 178.218 361.533 179.858C362.459 182.567 362.672 185.704 362.672 188.627C362.672 201.672 358.465 214.718 350.909 225.411Z" fill="white"/>
<path d="M383.203 205.165C383.062 205.664 382.847 206.163 382.705 206.591C379.212 216.215 373.081 224.841 365.168 231.328C364.812 231.613 364.455 231.898 364.099 232.183C362.244 233.609 360.321 234.963 358.04 235.604C357.755 235.676 357.468 235.748 357.184 235.82C364.384 230.402 369.66 222.489 372.868 213.934C376.716 203.597 377.786 192.405 378.142 181.355C378.927 181.925 379.712 182.567 380.425 183.351C381.207 184.135 381.849 185.062 382.492 185.989C382.847 186.63 383.203 187.201 383.49 187.913C385.842 193.332 385.057 199.533 383.203 205.165Z" fill="white"/>
<path d="M593.786 374.546C596.139 371.265 598.136 367.559 598.421 363.496C598.706 359.433 596.995 355.085 593.43 353.159C591.291 352.017 588.726 351.804 586.373 352.233C584.021 352.661 581.739 353.587 579.53 354.656C569.621 359.504 560.354 366.704 555.647 376.685C554.65 378.752 553.865 381.176 554.65 383.313C555.647 386.022 558.856 387.306 561.636 387.022C564.489 386.735 567.054 385.311 569.478 383.885C574.182 381.176 578.889 378.465 583.593 375.687" stroke="black" stroke-width="2.6087" stroke-miterlimit="10" stroke-linecap="round" stroke-linejoin="round"/>
<path d="M535.045 293.563L534.903 294.061L532.336 305.752C532.336 305.752 531.623 304.47 531.266 303.828C529.699 300.833 521.786 301.974 513.516 306.252C505.247 310.528 499.829 316.446 501.397 319.439C501.612 319.867 502.038 320.581 502.038 320.581L491.632 317.015L491.347 316.946C490.134 316.517 489.208 315.876 488.708 314.948C486.355 310.387 494.625 301.333 507.314 294.702C520.003 288.074 532.195 286.363 534.547 290.924C535.116 291.709 535.188 292.565 535.045 293.563Z" stroke="black" stroke-width="2.6087" stroke-miterlimit="10" stroke-linecap="round" stroke-linejoin="round"/>
<path d="M501.398 319.367L534.048 381.746" stroke="black" stroke-width="2.6087" stroke-miterlimit="10" stroke-linecap="round" stroke-linejoin="round"/>
<path d="M531.268 303.828L532.052 305.254L532.124 305.396L532.337 305.824L540.963 322.363" stroke="black" stroke-width="2.6087" stroke-miterlimit="10" stroke-linecap="round" stroke-linejoin="round"/>
<path d="M555.006 349.167L551.228 341.967" stroke="black" stroke-width="2.6087" stroke-miterlimit="10" stroke-linecap="round" stroke-linejoin="round"/>
<path d="M534.048 381.746L525.065 516.835" stroke="black" stroke-width="2.6087" stroke-miterlimit="10" stroke-linecap="round" stroke-linejoin="round"/>
<path d="M606.404 390.513L680.402 433.002L680.615 433.072L680.9 433.215" stroke="black" stroke-width="2.6087" stroke-miterlimit="10" stroke-linecap="round" stroke-linejoin="round"/>
<path d="M586.515 379.107L582.023 376.613" stroke="black" stroke-width="2.6087" stroke-miterlimit="10" stroke-linecap="round" stroke-linejoin="round"/>
<path d="M534.048 381.746C532.622 379.037 537.113 373.761 544.313 369.626" stroke="black" stroke-width="2.6087" stroke-miterlimit="10" stroke-linecap="round" stroke-linejoin="round"/>
<path d="M573.044 340.185C572.544 338.402 571.902 336.691 571.046 335.052C568.052 329.42 562.848 325.072 556.789 323.004C550.8 320.937 544.028 321.08 538.041 323.148C536.615 323.646 535.189 324.287 534.048 325.213C532.907 326.141 531.909 327.496 531.696 328.922C531.411 330.561 531.981 332.272 532.978 333.626C533.976 334.98 535.331 336.05 536.757 336.904C542.818 340.754 550.159 342.537 557.287 341.824" stroke="black" stroke-width="2.6087" stroke-miterlimit="10" stroke-linecap="round" stroke-linejoin="round"/>
<path d="M558.144 372.265C556.077 372.979 554.009 373.62 551.798 373.62C548.877 373.62 545.811 372.407 544.529 369.983C544.457 369.842 544.385 369.698 544.314 369.626C543.316 367.274 544.029 364.494 545.098 362.142C547.309 357.152 550.731 352.731 555.007 349.168C558.644 346.102 562.848 343.75 567.483 342.252C570.405 341.326 573.47 340.685 576.535 340.898C579.601 341.111 582.668 342.324 584.664 344.463C586.588 346.531 587.444 349.524 586.516 352.161" stroke="black" stroke-width="2.6087" stroke-miterlimit="10" stroke-linecap="round" stroke-linejoin="round"/>
<path d="M606.405 390.513C606.405 387.52 606.335 383.172 605.335 380.32C604.337 377.467 602.342 374.902 599.561 374.117C595.927 372.976 592.148 375.115 589.011 377.326C582.453 381.887 576.109 387.448 572.757 394.933C572.044 396.574 571.474 398.285 571.546 400.067C571.618 401.848 572.472 403.63 573.97 404.487C575.324 405.2 576.964 404.985 578.533 404.628C583.022 403.489 596.14 387.022 606.405 390.513Z" stroke="black" stroke-width="2.6087" stroke-miterlimit="10" stroke-linecap="round" stroke-linejoin="round"/>
<path d="M514.658 344.676C512.163 343.891 509.595 343.322 507.03 342.965C503.893 342.465 500.258 342.324 497.904 344.533C495.908 346.387 495.48 349.452 496.193 352.02C496.906 354.585 498.689 356.796 500.685 358.648C506.032 363.711 513.232 367.202 516.654 373.761C519.932 380.035 518.935 387.735 521.145 394.435C522.998 399.996 527.061 404.772 532.337 407.409" stroke="black" stroke-width="2.6087" stroke-miterlimit="10" stroke-linecap="round" stroke-linejoin="round"/>
<path d="M380.709 183.137C387.766 179.074 396.892 178.789 404.161 182.425C406.942 183.779 409.509 185.775 411.22 188.413C412.218 189.981 412.787 191.763 412.931 193.617C413.072 195.898 411.505 197.894 409.294 198.393C405.872 199.106 402.381 198.892 399.029 197.894C394.609 196.611 390.618 193.831 387.909 190.124" stroke="black" stroke-width="2.6087" stroke-miterlimit="10" stroke-linecap="round" stroke-linejoin="round"/>
<path d="M362.814 179.716C366.592 178.076 371.012 178.076 374.79 179.573C378.568 181.07 381.777 184.207 383.416 187.985C385.981 193.831 384.842 200.675 382.703 206.663C379.066 216.714 372.51 225.767 364.097 232.254C362.242 233.68 360.318 235.035 358.038 235.676C355.827 236.32 353.262 236.176 351.336 234.893C349.412 233.609 348.627 229.404 349.553 227.193" stroke="black" stroke-width="2.6087" stroke-miterlimit="10" stroke-linecap="round" stroke-linejoin="round"/>
<path d="M338.576 187.558C339.361 196.825 338.363 206.235 335.582 215.146C334.728 217.998 333.658 220.85 333.515 223.844C333.443 226.837 334.513 230.046 337.008 231.613C339.361 233.111 342.569 232.754 344.993 231.4C347.417 230.046 349.269 227.763 350.908 225.483C358.465 214.79 362.671 201.744 362.743 188.627C362.743 183.993 362.174 179.003 359.108 175.51C355.756 171.661 350.054 170.449 345.135 171.732C341.785 172.659 338.863 174.512 335.939 176.366C333.443 177.934 330.95 179.574 328.454 181.142" stroke="black" stroke-width="2.6087" stroke-miterlimit="10" stroke-linecap="round" stroke-linejoin="round"/>
<path d="M309.064 195.185C311.631 200.389 312.129 206.52 310.49 212.081C306.855 221.135 310.418 237.53 322.04 223.343C325.318 219.352 327.67 214.576 329.168 209.585C330.807 204.025 331.733 198.179 330.951 192.405C329.809 184.064 324.605 175.938 316.835 173.585C310.562 171.732 303.862 173.728 298.085 176.864C292.312 180.001 287.107 184.136 281.262 187.058C249.681 202.457 212.47 191.193 177.539 191.051C163.994 190.979 150.093 190.766 137.404 195.613C124.714 200.461 113.237 211.581 111.954 225.483C110.956 236.389 116.516 247.154 124.429 254.498C132.342 261.839 142.465 266.046 152.659 269.183C200.065 283.867 264.012 275.954 305.501 248.08" stroke="black" stroke-width="2.6087" stroke-miterlimit="10" stroke-linecap="round" stroke-linejoin="round"/>
<path d="M283.472 242.165C304.359 249.365 326.743 252.287 348.772 250.576" stroke="black" stroke-width="2.6087" stroke-miterlimit="10" stroke-linecap="round" stroke-linejoin="round"/>
<path d="M350.411 234.037C350.198 237.602 350.268 241.237 350.624 244.872C352.976 267.757 366.594 284.365 383.274 286.861H383.49C387.053 287.361 390.69 287.218 394.396 286.363C415.711 281.444 430.753 254.924 427.9 227.122C426.474 213.15 420.844 201.53 412.859 194.045" stroke="black" stroke-width="2.6087" stroke-miterlimit="10" stroke-linecap="round" stroke-linejoin="round"/>
<path d="M383.202 205.165C384.13 204.809 385.057 204.524 386.054 204.31C391.259 203.098 396.32 204.167 400.598 206.877C407.441 211.154 412.502 219.709 413.572 230.402C415.354 247.867 405.943 264.548 392.541 267.613C392.185 267.685 391.828 267.757 391.543 267.828C378.498 270.109 366.735 258.561 365.024 241.522C364.667 238.028 364.739 234.607 365.239 231.328" stroke="black" stroke-width="2.6087" stroke-miterlimit="10" stroke-linecap="round" stroke-linejoin="round"/>
<path d="M411.148 188.413C426.689 192.049 439.235 208.16 441.446 229.974C441.587 231.257 441.659 232.47 441.731 233.752" stroke="black" stroke-width="2.6087" stroke-miterlimit="10" stroke-linecap="round" stroke-linejoin="round"/>
<path d="M434.887 265.83C428.97 277.096 419.561 285.222 408.368 287.789C404.02 288.787 399.314 289.428 395.251 288.572L383.559 286.789H383.346" stroke="black" stroke-width="2.6087" stroke-miterlimit="10" stroke-linecap="round" stroke-linejoin="round"/>
<path d="M413.644 230.402C415.426 247.867 406.015 264.548 392.541 267.613C392.185 267.685 391.828 267.756 391.544 267.828C384.7 263.55 379.639 254.995 378.57 244.302C376.787 226.765 386.198 210.155 399.6 207.019C399.957 206.948 400.313 206.876 400.67 206.805C407.441 211.225 412.502 219.709 413.644 230.402Z" stroke="black" stroke-width="2.6087" stroke-miterlimit="10" stroke-linecap="round" stroke-linejoin="round"/>
<path d="M636.274 458.522C646.157 458.522 654.168 450.511 654.168 440.628C654.168 430.748 646.157 422.735 636.274 422.735C626.394 422.735 618.383 430.748 618.383 440.628C618.383 450.511 626.394 458.522 636.274 458.522Z" stroke="black" stroke-width="2.6087" stroke-miterlimit="10" stroke-linecap="round" stroke-linejoin="round"/>
<path d="M630.571 457.596L623.941 477.341L615.815 473.778" stroke="black" stroke-width="2.6087" stroke-miterlimit="10" stroke-linecap="round" stroke-linejoin="round"/>
<path d="M626.08 470.998L620.093 468.146" stroke="black" stroke-width="2.6087" stroke-miterlimit="10" stroke-linecap="round" stroke-linejoin="round"/>
<path d="M681.471 433.571C679.26 433.785 676.98 434.069 674.556 434.426C656.093 433.571 627.791 441.556 598.706 456.954C560.923 476.985 534.332 503.219 532.621 520.328L532.551 521.326C532.408 523.893 532.906 526.174 533.975 528.241C534.475 529.167 535.117 530.024 535.83 530.808C531.41 529.382 528.201 527.03 526.419 523.75C525.349 521.682 524.851 519.402 524.995 516.835L525.064 515.837C526.775 498.728 553.438 472.495 591.149 452.463C628.575 432.574 664.932 425.089 680.33 432.93L680.543 433.002C680.899 433.215 681.186 433.428 681.471 433.571Z" fill="white"/>
<mask id="mask0_2013_9" style="mask-type:alpha" maskUnits="userSpaceOnUse" x="524" y="429" width="158" height="102">
<path d="M681.471 433.571C679.26 433.785 676.98 434.069 674.556 434.426C656.093 433.571 627.791 441.556 598.706 456.954C560.923 476.985 534.332 503.219 532.621 520.328L532.551 521.326C532.408 523.893 532.906 526.174 533.975 528.241C534.475 529.167 535.117 530.024 535.83 530.808C531.41 529.382 528.201 527.03 526.419 523.75C525.349 521.682 524.851 519.402 524.995 516.835L525.064 515.837C526.775 498.728 553.438 472.495 591.149 452.463C628.575 432.574 664.932 425.089 680.33 432.93L680.543 433.002C680.899 433.215 681.186 433.428 681.471 433.571Z" fill="white"/>
</mask>
<g mask="url(#mask0_2013_9)">
<path d="M636.274 458.521C646.157 458.521 654.168 450.511 654.168 440.628C654.168 430.748 646.157 422.734 636.274 422.734C626.394 422.734 618.383 430.748 618.383 440.628C618.383 450.511 626.394 458.521 636.274 458.521Z" stroke="#0A66C2" stroke-opacity="0.5" stroke-width="2.6087" stroke-miterlimit="10" stroke-linecap="round" stroke-linejoin="round"/>
</g>
<path d="M546.808 431.504C542.46 435.639 539.821 441.485 539.821 447.972C539.821 456.028 543.956 463.085 550.302 467.148" stroke="#0A66C2" stroke-opacity="0.5" stroke-width="2.6087" stroke-miterlimit="10" stroke-linecap="round" stroke-linejoin="round"/>
<path d="M621.863 509.993C666.05 486.504 695.021 454.585 686.576 438.696C678.13 422.809 635.465 428.972 591.278 452.461C547.093 475.95 518.119 507.872 526.565 523.759C535.011 539.646 577.678 533.483 621.863 509.993Z" stroke="black" stroke-width="2.6087" stroke-miterlimit="10" stroke-linecap="round" stroke-linejoin="round"/>
<path d="M535.759 336.478C540.322 340.185 546.024 342.396 551.798 342.752C552.583 344.676 553.011 346.387 553.796 348.311C552.583 347.885 551.442 347.457 550.231 347.028C544.885 345.033 538.896 341.254 535.759 336.478Z" fill="black"/>
<path d="M543.601 370.696C545.74 374.974 549.947 378.039 554.651 378.681L554.579 378.609C555.577 376.685 556.505 374.687 557.503 372.763C552.799 374.261 547.736 373.404 543.601 370.696Z" fill="black"/>
<path d="M505.319 270.252C503.893 278.094 500.828 284.152 498.547 283.724C496.264 283.298 495.551 276.596 497.049 268.683C498.475 260.841 501.541 254.783 503.821 255.211C506.104 255.637 506.745 262.339 505.319 270.252Z" stroke="black" stroke-width="2.6087" stroke-miterlimit="10" stroke-linecap="round" stroke-linejoin="round"/>
<path d="M505.104 247.939C502.396 247.439 499.402 250.004 496.907 254.426C495.624 256.706 494.483 259.487 493.557 262.552C493.059 264.191 492.702 265.974 492.346 267.756C490.135 279.589 492.346 289.998 497.191 290.924L477.874 287.289C474.309 286.648 472.17 280.943 472.17 273.317L435.244 265.474L433.317 265.048C433.033 264.976 432.748 264.832 432.535 264.619C432.391 264.548 432.32 264.406 432.178 264.263C432.107 264.191 431.963 264.05 431.894 263.978C431.822 263.906 431.822 263.906 431.75 263.835C431.678 263.693 431.537 263.55 431.465 263.406C431.394 263.265 431.252 263.05 431.181 262.909C431.109 262.765 431.037 262.624 430.965 262.48C430.824 262.124 430.609 261.695 430.539 261.198C430.467 261.054 430.467 260.841 430.396 260.698C430.252 260.272 430.183 259.772 430.111 259.274C430.111 259.13 430.039 258.917 430.039 258.774C429.967 258.489 429.967 258.204 429.967 257.917C429.967 257.632 429.896 257.348 429.896 257.063C429.896 256.991 429.896 256.85 429.896 256.778C429.896 256.278 429.826 255.709 429.826 255.209C429.826 253.356 429.967 251.43 430.324 249.363C430.396 249.078 430.396 248.793 430.467 248.509C430.539 248.224 430.609 247.939 430.609 247.652C431.037 245.728 431.537 243.874 432.178 242.235C432.25 242.093 432.32 241.878 432.391 241.737C432.463 241.522 432.607 241.237 432.676 241.024C432.748 240.809 432.82 240.667 432.891 240.452C432.963 240.239 433.033 240.095 433.104 239.954C433.389 239.382 433.604 238.885 433.889 238.385C434.102 238.1 434.246 237.743 434.459 237.459C434.531 237.315 434.674 237.174 434.744 237.03C434.815 236.889 434.959 236.745 435.031 236.604C435.813 235.535 436.598 234.822 437.452 234.393C437.524 234.322 437.667 234.322 437.739 234.25C437.952 234.18 438.096 234.109 438.309 234.037C438.381 234.037 438.452 233.965 438.522 233.965C438.809 233.893 439.094 233.893 439.378 233.965L441.802 234.465L505.104 247.939Z" fill="#0A66C2" fill-opacity="0.5"/>
<path d="M496.907 254.426C495.624 256.706 494.483 259.487 493.557 262.552L430.324 249.293C430.396 249.006 430.396 248.722 430.468 248.437C430.539 248.152 430.609 247.867 430.609 247.582C431.037 245.656 431.537 243.804 432.179 242.163C432.25 242.022 432.32 241.806 432.392 241.665C432.463 241.45 432.607 241.165 432.676 240.952C432.748 240.737 432.82 240.595 432.892 240.38C432.963 240.167 433.033 240.026 433.105 239.882L496.907 254.426Z" fill="white"/>
<path d="M505.104 247.939C502.396 247.439 499.402 250.004 496.907 254.426C495.624 256.706 494.483 259.487 493.557 262.552C493.059 264.191 492.702 265.974 492.346 267.756C490.135 279.589 492.346 289.998 497.191 290.924L477.874 287.289C474.309 286.648 472.17 280.943 472.17 273.317L435.244 265.474L433.317 265.048C433.033 264.976 432.748 264.832 432.535 264.619C432.391 264.548 432.32 264.406 432.178 264.263C432.107 264.191 431.963 264.05 431.894 263.978C431.822 263.906 431.822 263.906 431.75 263.835C431.678 263.693 431.537 263.55 431.465 263.406C431.394 263.265 431.252 263.05 431.181 262.909C431.109 262.765 431.037 262.624 430.965 262.48C430.824 262.124 430.609 261.695 430.539 261.198C430.467 261.054 430.467 260.841 430.396 260.698C430.252 260.272 430.183 259.772 430.111 259.274C430.111 259.13 430.039 258.917 430.039 258.774C429.967 258.489 429.967 258.204 429.967 257.917C429.967 257.632 429.896 257.348 429.896 257.063C429.896 256.991 429.896 256.85 429.896 256.778C429.896 256.278 429.826 255.709 429.826 255.209C429.826 253.356 429.967 251.43 430.324 249.363C430.396 249.078 430.396 248.793 430.467 248.509C430.539 248.224 430.609 247.939 430.609 247.652C431.037 245.728 431.537 243.874 432.178 242.235C432.25 242.093 432.32 241.878 432.391 241.737C432.463 241.522 432.607 241.237 432.676 241.024C432.748 240.809 432.82 240.667 432.891 240.452C432.963 240.239 433.033 240.095 433.104 239.954C433.389 239.382 433.604 238.885 433.889 238.385C434.102 238.1 434.246 237.743 434.459 237.459C434.531 237.315 434.674 237.174 434.744 237.03C434.815 236.889 434.959 236.745 435.031 236.604C435.813 235.535 436.598 234.822 437.452 234.393C437.524 234.322 437.667 234.322 437.739 234.25C437.952 234.18 438.096 234.109 438.309 234.037C438.381 234.037 438.452 233.965 438.522 233.965C438.809 233.893 439.094 233.893 439.378 233.965L441.802 234.465L505.104 247.939Z" stroke="black" stroke-width="2.6087" stroke-miterlimit="10" stroke-linecap="round" stroke-linejoin="round"/>
<path d="M509.952 271.106C507.744 283.013 502.039 291.852 497.191 290.924C492.346 289.998 490.135 279.661 492.346 267.756C494.554 255.852 500.259 247.011 505.104 247.939C509.952 248.865 512.163 259.202 509.952 271.106Z" stroke="black" stroke-width="2.6087" stroke-miterlimit="10" stroke-linecap="round" stroke-linejoin="round"/>
<path d="M605.906 510.92C628.861 500.939 650.032 486.896 668.141 469.715C672.132 465.937 684.393 452.82 680.83 440.628C678.191 455.385 666.928 465.08 662.937 469.002C645.828 485.611 626.865 499.441 605.906 510.92Z" fill="white" stroke="white" stroke-width="2.6087" stroke-miterlimit="10" stroke-linecap="round" stroke-linejoin="round"/>
<path d="M457.343 428.796L440.376 410.474L430.824 400.209L421.272 405.983L420.059 409.833L429.611 420.098L423.837 425.23L419.489 420.526L414.357 425.23C414.357 425.23 411.148 422.024 409.009 419.741L399.528 425.017V428.226L409.08 438.491L396.178 450.039C389.691 445.335 381.707 442.554 373.08 442.554C351.337 442.554 333.659 460.233 333.659 481.976C333.659 503.791 351.337 521.398 373.08 521.398C394.824 521.398 412.502 503.719 412.502 481.976C412.502 477.985 411.933 474.135 410.791 470.498L457.343 428.796ZM372.937 502.222C361.817 502.222 352.763 493.167 352.763 482.048C352.763 470.926 361.817 461.874 372.937 461.874C384.059 461.874 393.113 470.926 393.113 482.048C393.041 493.167 384.059 502.222 372.937 502.222Z" fill="black" stroke="black" stroke-width="2.6087" stroke-miterlimit="10" stroke-linecap="round" stroke-linejoin="round"/>
<path d="M321.255 473.422C321.111 469.143 320.042 464.867 318.046 460.733C310.49 445.263 292.027 438.633 276.414 445.763C271.353 436.493 250.966 397.428 237.564 371.552L226.442 371.622L221.594 362.285L225.301 347.954L206.766 337.833C206.766 337.833 195.36 353.23 193.222 360.859L207.978 368.628L211.756 375.259L209.404 380.248C209.404 380.248 211.186 383.813 224.231 408.835L220.881 417.317C231.503 437.706 241.698 457.098 244.192 461.587C233.072 467.433 226.798 479.054 227.296 490.959C227.44 495.235 228.509 499.513 230.505 503.576C238.205 519.33 257.238 525.889 272.992 518.191L303.575 503.291C315.125 497.517 321.753 485.683 321.255 473.422ZM278.625 500.583C271.425 500.867 265.294 495.235 265.009 488.035C264.722 480.835 270.355 474.776 277.555 474.491C284.755 474.206 290.885 479.837 291.17 487.037C291.457 494.167 285.825 500.298 278.625 500.583Z" fill="black" stroke="black" stroke-width="2.6087" stroke-miterlimit="10" stroke-linecap="round" stroke-linejoin="round"/>
<path d="M193.862 357.009L209.189 365.42L212.967 372.05L210.615 377.041C210.615 377.041 212.397 380.604 225.443 405.626L222.093 414.111C232.715 434.498 242.908 453.889 245.404 458.38C234.282 464.226 228.008 475.846 228.508 487.75C228.652 492.028 229.719 496.304 231.717 500.367C239.415 516.124 258.449 522.68 274.204 514.983L304.786 500.083C316.478 494.38 323.106 482.476 322.608 470.285C322.465 466.007 321.395 461.73 319.399 457.596C311.843 442.126 293.38 435.496 277.769 442.626C272.706 433.359 252.319 394.291 238.917 368.415L227.795 368.485L222.947 359.148L226.654 344.817L208.191 334.767L193.862 357.009ZM279.834 497.446C272.634 497.73 266.504 492.098 266.219 484.898C265.934 477.698 271.567 471.639 278.767 471.354C285.967 471.07 292.097 476.7 292.382 483.9C292.667 491.1 287.036 497.161 279.834 497.446Z" fill="white"/>
<path d="M208.191 334.767L226.584 344.889L222.876 359.217L227.723 368.557L238.845 368.485C239.389 369.572 241.115 372.917 242.758 376.087M193.862 357.009L209.189 365.42L212.967 372.05L210.615 377.041C210.615 377.041 212.397 380.604 225.443 405.626L222.093 414.111C232.715 434.498 242.908 453.889 245.404 458.38C234.282 464.226 228.008 475.846 228.508 487.75C228.652 492.028 229.719 496.304 231.717 500.367C239.415 516.124 258.449 522.68 274.204 514.983L304.786 500.083C316.478 494.38 323.106 482.476 322.608 470.285C322.465 466.007 321.395 461.73 319.399 457.596C317.43 453.604 315.226 450.472 311.956 447.667M247.826 385.87C259.547 408.359 273.884 435.652 277.697 442.696C283.967 439.835 294.199 438.696 303.26 442.326M279.834 497.446C272.634 497.73 266.504 492.098 266.219 484.898C265.934 477.698 271.567 471.639 278.767 471.354C285.967 471.07 292.097 476.7 292.382 483.9C292.667 491.1 287.036 497.161 279.834 497.446Z" stroke="black" stroke-width="2.6087" stroke-miterlimit="10" stroke-linecap="round" stroke-linejoin="round"/>
<path d="M247.828 490.887C228.508 493.167 212.753 496.304 202.274 500.011C187.161 477.557 178.25 450.539 178.25 421.452C178.25 385.809 191.51 353.23 213.395 328.422C216.247 325.285 219.169 322.22 222.234 319.298" stroke="black" stroke-width="2.6087" stroke-miterlimit="10" stroke-linecap="round" stroke-linejoin="round"/>
<path d="M222.235 319.37C247.4 295.559 281.404 281.015 318.759 281.015C356.754 281.015 391.331 296.128 416.565 320.652C442.872 346.174 459.267 381.959 459.267 421.524C459.267 450.609 450.428 477.628 435.244 500.083" stroke="black" stroke-width="2.6087" stroke-miterlimit="10" stroke-linecap="round" stroke-linejoin="round"/>
<path d="M324.747 561.889C322.749 561.961 320.753 562.033 318.758 562.033C299.012 562.033 280.19 557.97 263.153 550.626C252.96 546.207 243.408 540.718 234.71 534.159C257.451 530.666 286.749 528.598 318.758 528.598C320.256 528.598 321.682 528.598 323.177 528.598C324.247 528.598 325.316 528.598 326.386 528.598C328.097 528.598 329.808 528.598 331.519 528.67C332.303 528.67 333.086 528.67 333.943 528.742C335.153 528.742 336.438 528.813 337.649 528.813C340.073 528.883 342.569 528.955 344.993 529.026C347.416 529.098 349.769 529.239 352.121 529.311C352.619 529.311 353.047 529.383 353.547 529.383C355.399 529.455 357.182 529.596 359.036 529.668C360.247 529.739 361.388 529.811 362.599 529.883C363.74 529.952 364.882 530.024 366.021 530.096C367.162 530.168 368.232 530.239 369.373 530.309C370.512 530.381 371.582 530.452 372.651 530.594C373.721 530.666 374.862 530.809 375.932 530.881C378.14 531.094 380.208 531.237 382.347 531.45C382.703 531.45 382.988 531.522 383.345 531.522C384.414 531.663 385.556 531.735 386.623 531.879C388.906 532.092 391.186 532.376 393.397 532.661C394.395 532.805 395.464 532.948 396.462 533.089C397.601 533.233 398.743 533.374 399.884 533.589C400.953 533.731 401.951 533.874 403.021 534.016C380.921 550.485 353.975 560.679 324.747 561.889Z" stroke="black" stroke-width="2.6087" stroke-miterlimit="10" stroke-linecap="round" stroke-linejoin="round"/>
<path d="M410.935 535.441L417.706 563.528L436.313 641.304" stroke="black" stroke-width="2.6087" stroke-miterlimit="10" stroke-linecap="round" stroke-linejoin="round"/>
<path d="M318.759 562.032V641.304" stroke="black" stroke-width="2.6087" stroke-miterlimit="10" stroke-linecap="round" stroke-linejoin="round"/>
<path d="M568.552 641.233H241.198" stroke="white" stroke-width="2.6087" stroke-miterlimit="10"/>
<path d="M201.205 523.965C205.696 522.324 211.328 520.685 217.887 519.259C241.839 513.985 278.124 510.633 318.759 510.633C326.6 510.633 334.3 510.776 341.713 510.989C343.352 511.061 344.993 511.061 346.632 511.133C361.246 511.702 375.004 512.7 387.337 514.126C399.6 515.48 410.506 517.191 419.63 519.259C426.189 520.685 431.75 522.254 436.313 523.965" stroke="black" stroke-width="2.6087" stroke-miterlimit="10" stroke-linecap="round" stroke-linejoin="round"/>
<path d="M436.313 523.965L410.935 535.441" stroke="black" stroke-width="2.6087" stroke-miterlimit="10" stroke-linecap="round" stroke-linejoin="round"/>
<path d="M457.343 425.659L440.376 407.337L430.824 397.072L419.987 406.696L429.541 416.961L423.765 422.093L419.417 417.389L414.285 422.093C414.285 422.093 411.076 418.887 408.939 416.604L399.456 425.089L409.009 435.354L396.106 446.902C389.62 442.198 381.635 439.417 373.009 439.417C351.265 439.417 333.587 457.098 333.587 478.839C333.587 500.654 351.265 518.261 373.009 518.261C394.752 518.261 412.43 500.583 412.43 478.839C412.43 474.848 411.861 470.998 410.72 467.363L457.343 425.659ZM372.937 499.013C361.817 499.013 352.763 489.961 352.763 478.839C352.763 467.72 361.817 458.665 372.937 458.665C384.059 458.665 393.113 467.72 393.113 478.839C393.041 489.961 384.059 499.013 372.937 499.013Z" fill="#0A66C2" fill-opacity="0.5"/>
<path d="M367.663 439.774C347.487 442.411 332.161 460.304 333.587 481.476C334.87 500.939 350.624 516.765 370.087 518.12C393.113 519.759 412.361 501.509 412.361 478.767C412.361 474.776 411.789 470.926 410.648 467.291L457.344 425.587L440.376 407.267L432.535 398.783C431.607 397.785 430.039 397.713 428.97 398.641L421.983 404.913C420.915 405.841 420.844 407.48 421.841 408.55L429.611 416.961L423.837 422.093L419.489 417.389L414.357 422.093C414.357 422.093 411.148 418.887 409.009 416.604L399.528 425.089L409.081 435.354L396.178 446.902C393.183 444.763 389.904 442.983 386.411 441.77M372.937 499.013C361.818 499.013 352.763 489.961 352.763 478.839C352.763 467.72 361.818 458.665 372.937 458.665C384.059 458.665 393.113 467.72 393.113 478.839C393.041 489.961 384.059 499.013 372.937 499.013Z" stroke="black" stroke-width="2.6087" stroke-miterlimit="10" stroke-linecap="round" stroke-linejoin="round"/>
<path d="M217.887 519.33C212.112 513.415 206.908 506.926 202.274 500.083" stroke="black" stroke-width="2.6087" stroke-miterlimit="10" stroke-linecap="round" stroke-linejoin="round"/>
<path d="M217.888 519.33C241.84 514.054 278.125 510.704 318.759 510.704C326.601 510.704 334.301 510.848 341.714 511.061C343.353 511.132 344.994 511.132 346.633 511.204C361.246 511.774 375.005 512.772 387.338 514.198C388.194 514.269 389.12 514.411 389.977 514.482C401.168 515.767 411.22 517.406 419.631 519.259C425.407 513.343 430.609 506.854 435.244 500.011C427.544 497.302 417.066 494.878 404.377 492.882C403.877 492.811 403.307 492.669 402.738 492.598" stroke="black" stroke-width="2.6087" stroke-miterlimit="10" stroke-linecap="round" stroke-linejoin="round"/>
<path d="M261.23 489.533C278.552 487.965 298.085 487.109 318.759 487.109C346.776 487.109 372.652 488.678 393.967 491.387" stroke="black" stroke-width="2.6087" stroke-miterlimit="10" stroke-linecap="round" stroke-linejoin="round"/>
<path d="M202.274 500.013C212.754 496.304 228.509 493.167 247.828 490.887" stroke="black" stroke-width="2.6087" stroke-miterlimit="10" stroke-linecap="round" stroke-linejoin="round"/>
<path d="M436.312 523.965L411.004 535.442C408.438 535.013 405.658 534.515 402.877 534.087C401.88 533.946 400.81 533.802 399.74 533.659C398.601 533.518 397.46 533.374 396.319 533.161C395.321 533.018 394.323 532.876 393.254 532.733C391.045 532.448 388.762 532.163 386.482 531.948C385.412 531.807 384.343 531.735 383.201 531.592C382.845 531.592 382.56 531.522 382.204 531.522C380.136 531.307 377.999 531.094 375.788 530.95C374.719 530.879 373.649 530.737 372.51 530.666C371.44 530.594 370.299 530.452 369.23 530.381C368.088 530.309 367.021 530.237 365.88 530.168C364.738 530.096 363.599 530.024 362.458 529.952C361.245 529.881 360.106 529.811 358.893 529.739C357.11 529.668 355.258 529.524 353.404 529.455C352.906 529.455 352.477 529.383 351.977 529.383C349.625 529.239 347.201 529.168 344.849 529.098C342.425 529.026 340.001 528.955 337.508 528.883C336.295 528.883 335.084 528.813 333.799 528.813C333.017 528.813 332.232 528.813 331.375 528.742C329.664 528.742 327.954 528.67 326.243 528.67C325.173 528.67 324.106 528.67 323.036 528.67C321.538 528.67 320.112 528.67 318.617 528.67C286.608 528.67 257.236 530.737 234.567 534.231C231.786 534.657 229.077 535.085 226.44 535.585L201.133 524.107C205.624 522.468 211.256 520.829 217.814 519.402C241.767 514.126 278.054 510.776 318.686 510.776C326.527 510.776 334.227 510.92 341.64 511.133C343.282 511.205 344.921 511.205 346.56 511.276C361.175 511.846 374.934 512.844 387.267 514.27C388.121 514.342 389.047 514.483 389.904 514.555C401.095 515.837 411.147 517.479 419.56 519.331C426.188 520.757 431.821 522.324 436.312 523.965Z" fill="#0A66C2" fill-opacity="0.5" stroke="black" stroke-width="2.6087" stroke-miterlimit="10" stroke-linecap="round" stroke-linejoin="round"/>
<path d="M226.584 535.441L222.663 543.639" stroke="black" stroke-width="2.6087" stroke-miterlimit="10" stroke-linecap="round" stroke-linejoin="round"/>
<path d="M211.756 533.874C221.024 542.569 230.861 550.626 241.198 558.111" stroke="white" stroke-width="2.6087" stroke-miterlimit="10"/>
<path d="M226.585 511.133C198.425 471.854 186.734 418.102 195.573 368.557C178.821 408.407 181.815 454.815 204.556 490.674C210.045 499.37 217.387 508.637 226.585 511.133Z" fill="white" stroke="white" stroke-width="2.6087" stroke-miterlimit="10" stroke-linecap="round" stroke-linejoin="round"/>
<path d="M581.667 558.111L608.615 631.537C610.326 636.313 606.832 641.304 601.771 641.304H581.382H221.023C216.033 641.304 212.539 636.243 214.251 631.537L241.197 558.111" stroke="white" stroke-width="4.34783" stroke-miterlimit="10" stroke-linecap="round" stroke-linejoin="round"/>
</svg>
