<svg width="24" height="24" viewBox="0 0 24 24" fill="none" xmlns="http://www.w3.org/2000/svg">
<mask id="mask0_6_264" style="mask-type:alpha" maskUnits="userSpaceOnUse" x="0" y="0" width="24" height="24">
<rect y="0.114288" width="23.7714" height="23.7714" fill="#D9D9D9"/>
</mask>
<g mask="url(#mask0_6_264)">
<path d="M16.9526 8.91417H18.7048V7.16201H16.9526V8.91417ZM17.8287 22.4C16.5919 22.4 15.5399 21.9663 14.6725 21.099C13.8052 20.2317 13.3716 19.1796 13.3716 17.9429C13.3716 16.7061 13.8052 15.654 14.6725 14.7867C15.5399 13.9194 16.5919 13.4857 17.8287 13.4857C19.0655 13.4857 20.1175 13.9194 20.9849 14.7867C21.8522 15.654 22.2858 16.7061 22.2858 17.9429C22.2858 19.1796 21.8522 20.2317 20.9849 21.099C20.1175 21.9663 19.0655 22.4 17.8287 22.4ZM17.3907 20.8571H18.2667V18.3809H20.7429V17.5048H18.2667V15.0286H17.3907V17.5048H14.9145V18.3809H17.3907V20.8571ZM22.2858 12.8382C21.6864 12.2718 21.0004 11.8445 20.2276 11.5563C19.4551 11.268 18.6554 11.1239 17.8287 11.1239C17.5646 11.1239 17.3113 11.1391 17.0688 11.1695C16.8261 11.2 16.5842 11.2509 16.343 11.322V10.2667L10.0953 5.76965V3.58095H22.2858V12.8382ZM1.48584 20.419V11.2571L7.92394 6.66678L14.362 11.2571V12.1258C13.3385 12.706 12.524 13.5238 11.9183 14.5789C11.3126 15.6343 11.0098 16.7556 11.0098 17.9429C11.0098 18.3848 11.0491 18.8066 11.1276 19.2084C11.2064 19.6104 11.3327 20.0139 11.5067 20.419H9.82862V14.9333H6.01925V20.419H1.48584Z" fill="#0A66C2"/>
</g>
</svg>
