<svg width="36" height="36" viewBox="0 0 36 36" fill="none" xmlns="http://www.w3.org/2000/svg">
<mask id="mask0_26_133" style="mask-type:alpha" maskUnits="userSpaceOnUse" x="0" y="0" width="36" height="36">
<rect width="36" height="36" fill="#D9D9D9"/>
</mask>
<g mask="url(#mask0_26_133)">
<path d="M6.73846 30.75C5.94446 30.75 5.38008 30.3826 5.04533 29.6479C4.71083 28.9134 4.81946 28.2422 5.37121 27.6345L14.5846 17.0336V6.95213H12.4617C12.2205 6.95213 12.0183 6.86975 11.8553 6.705C11.6923 6.5405 11.6108 6.33675 11.6108 6.09375C11.6108 5.8505 11.6923 5.64913 11.8553 5.48963C12.0183 5.32988 12.2205 5.25 12.4617 5.25H23.5385C23.7797 5.25 23.9818 5.33225 24.1448 5.49675C24.3078 5.66125 24.3893 5.86513 24.3893 6.10838C24.3893 6.35163 24.3078 6.553 24.1448 6.7125C23.9818 6.87225 23.7797 6.95213 23.5385 6.95213H21.4156V17.0336L30.629 27.6345C31.1807 28.2422 31.2893 28.9134 30.9548 29.6479C30.6201 30.3826 30.0557 30.75 29.2617 30.75H6.73846ZM9.46471 27.822H26.5355L20.7807 21.1298H15.2195L9.46471 27.822ZM6.40396 29.0479H29.5962L19.7135 17.6569V6.95213H16.2867V17.6569L6.40396 29.0479Z" fill="white"/>
</g>
</svg>
