<svg width="22" height="22" viewBox="0 0 22 22" fill="none" xmlns="http://www.w3.org/2000/svg">
<mask id="mask0_5_178" style="mask-type:alpha" maskUnits="userSpaceOnUse" x="0" y="0" width="22" height="22">
<rect width="22" height="22" fill="#D9D9D9"/>
</mask>
<g mask="url(#mask0_5_178)">
<path d="M6.52242 15.689C6.29264 15.689 6.09999 15.6113 5.94446 15.4559C5.78909 15.3005 5.7114 15.108 5.7114 14.8782V13.5032H17.0551L17.346 13.794V5.49999H18.721C18.9507 5.49999 19.1433 5.57768 19.2987 5.73305C19.4542 5.88858 19.532 6.08116 19.532 6.31078V18.9326L16.2884 15.689H6.52242ZM2.46777 14.9135V3.10268C2.46777 2.8729 2.54554 2.68025 2.70107 2.52472C2.85644 2.36934 3.04902 2.29166 3.27879 2.29166H14.7018C14.9316 2.29166 15.1242 2.36934 15.2796 2.52472C15.4349 2.68025 15.5126 2.8729 15.5126 3.10268V10.8591C15.5126 11.0887 15.4349 11.2813 15.2796 11.4368C15.1242 11.5922 14.9316 11.6698 14.7018 11.6698H5.7114L2.46777 14.9135ZM14.1376 10.2948V3.66666H3.84277V10.9296L4.47756 10.2948H14.1376Z" fill="white"/>
</g>
</svg>
