<svg width="25" height="24" viewBox="0 0 25 24" fill="none" xmlns="http://www.w3.org/2000/svg">
<mask id="mask0_6_303" style="mask-type:alpha" maskUnits="userSpaceOnUse" x="0" y="0" width="25" height="24">
<rect x="0.542969" y="0.114288" width="23.7714" height="23.7714" fill="#D9D9D9"/>
</mask>
<g mask="url(#mask0_6_303)">
<path d="M2.32373 19.2382V17.0361C2.32373 16.5257 2.45546 16.0701 2.71893 15.6695C2.9824 15.2688 3.33426 14.9572 3.77453 14.7345C4.71581 14.2741 5.6623 13.9191 6.61398 13.6695C7.56583 13.42 8.61185 13.2953 9.75206 13.2953C10.8924 13.2953 11.9385 13.42 12.8901 13.6695C13.842 13.9191 14.7885 14.2741 15.7298 14.7345C16.1701 14.9572 16.522 15.2688 16.7854 15.6695C17.0489 16.0701 17.1806 16.5257 17.1806 17.0361V19.2382H2.32373ZM19.1616 19.2382V16.9143C19.1616 16.2642 19.0024 15.6445 18.6842 15.0554C18.3657 14.4664 17.9141 13.961 17.3292 13.5392C17.9933 13.6383 18.6238 13.7915 19.2208 13.999C19.8175 14.2067 20.3871 14.4521 20.9293 14.7352C21.4411 15.0083 21.8363 15.3301 22.1149 15.7007C22.3936 16.0711 22.5329 16.4756 22.5329 16.9143V19.2382H19.1616ZM9.75206 11.6952C8.79872 11.6952 7.98265 11.3558 7.30385 10.677C6.62504 9.99801 6.28564 9.18186 6.28564 8.22852C6.28564 7.27519 6.62504 6.45912 7.30385 5.78031C7.98265 5.10134 8.79872 4.76186 9.75206 4.76186C10.7054 4.76186 11.5215 5.10134 12.2005 5.78031C12.8793 6.45912 13.2187 7.27519 13.2187 8.22852C13.2187 9.18186 12.8793 9.99801 12.2005 10.677C11.5215 11.3558 10.7054 11.6952 9.75206 11.6952ZM18.3043 8.22852C18.3043 9.18186 17.9649 9.99801 17.2861 10.677C16.6073 11.3558 15.7912 11.6952 14.8379 11.6952C14.7261 11.6952 14.5839 11.6825 14.4113 11.6571C14.2384 11.6316 14.0962 11.6037 13.9846 11.5734C14.3752 11.1037 14.6754 10.5827 14.8852 10.0104C15.0949 9.43806 15.1997 8.84377 15.1997 8.22753C15.1997 7.61113 15.0927 7.01907 14.8788 6.45136C14.6648 5.88382 14.3668 5.36134 13.9846 4.88393C14.1267 4.83309 14.269 4.80007 14.4113 4.78488C14.5534 4.76953 14.6956 4.76186 14.8379 4.76186C15.7912 4.76186 16.6073 5.10134 17.2861 5.78031C17.9649 6.45912 18.3043 7.27519 18.3043 8.22852ZM3.8092 17.7524H15.6949V17.0361C15.6949 16.8292 15.6432 16.6452 15.5397 16.4839C15.4363 16.3226 15.2722 16.1816 15.0474 16.061C14.2322 15.6407 13.3929 15.3222 12.5294 15.1056C11.6658 14.8892 10.7401 14.781 9.75206 14.781C8.76422 14.781 7.83854 14.8892 6.97501 15.1056C6.11148 15.3222 5.27213 15.6407 4.45697 16.061C4.23213 16.1816 4.06796 16.3226 3.96446 16.4839C3.86095 16.6452 3.8092 16.8292 3.8092 17.0361V17.7524ZM9.75206 10.2095C10.2968 10.2095 10.7632 10.0155 11.1511 9.62757C11.539 9.23963 11.733 8.77328 11.733 8.22852C11.733 7.68376 11.539 7.21741 11.1511 6.82948C10.7632 6.44154 10.2968 6.24757 9.75206 6.24757C9.2073 6.24757 8.74095 6.44154 8.35301 6.82948C7.96507 7.21741 7.7711 7.68376 7.7711 8.22852C7.7711 8.77328 7.96507 9.23963 8.35301 9.62757C8.74095 10.0155 9.2073 10.2095 9.75206 10.2095Z" fill="#1C1B1F" fill-opacity="0.5"/>
</g>
</svg>
