<svg width="22" height="22" viewBox="0 0 22 22" fill="none" xmlns="http://www.w3.org/2000/svg">
<mask id="mask0_5_37" style="mask-type:alpha" maskUnits="userSpaceOnUse" x="0" y="0" width="22" height="22">
<rect width="22" height="22" fill="#D9D9D9"/>
</mask>
<g mask="url(#mask0_5_37)">
<path d="M15.3364 18.7917C15.1119 18.7917 14.9206 18.7126 14.7625 18.5545C14.6046 18.3965 14.5256 18.2052 14.5256 17.9807V11.0106C14.5256 10.7861 14.6046 10.5948 14.7625 10.4367C14.9206 10.2787 15.1119 10.1998 15.3364 10.1998H18.8971C19.1217 10.1998 19.313 10.2787 19.471 10.4367C19.6291 10.5948 19.7082 10.7861 19.7082 11.0106V17.9807C19.7082 18.2052 19.6291 18.3965 19.471 18.5545C19.313 18.7126 19.1217 18.7917 18.8971 18.7917H15.3364ZM15.3364 17.064H18.8971V11.9272H15.3364V17.064ZM7.40375 18.7917V17.4167H9.39567V15.125H3.94861C3.4915 15.125 3.101 14.9631 2.77711 14.6394C2.45337 14.3155 2.2915 13.925 2.2915 13.4679V4.86545C2.2915 4.40834 2.45337 4.01784 2.77711 3.69395C3.101 3.37021 3.4915 3.20834 3.94861 3.20834H16.2177C16.6748 3.20834 17.0653 3.37021 17.3892 3.69395C17.713 4.01784 17.8748 4.40834 17.8748 4.86545V8.36643H16.4998V4.86545C16.4998 4.7831 16.4734 4.7155 16.4205 4.66264C16.3677 4.60977 16.3001 4.58334 16.2177 4.58334H3.94861C3.86626 4.58334 3.79866 4.60977 3.7458 4.66264C3.69293 4.7155 3.6665 4.7831 3.6665 4.86545V13.4679C3.6665 13.5503 3.69293 13.6179 3.7458 13.6707C3.79866 13.7236 3.86626 13.75 3.94861 13.75H12.6922V15.125H10.7707V17.4167H12.7626V18.7917H7.40375ZM8.16871 12.3221L10.0832 10.8238L11.9976 12.3221L11.2888 9.92109L13.2122 8.36643H10.8376L10.0832 6.06422L9.32875 8.36643H6.95413L8.87752 9.92109L8.16871 12.3221Z" fill="white"/>
</g>
</svg>
