<svg width="24" height="24" viewBox="0 0 24 24" fill="none" xmlns="http://www.w3.org/2000/svg">
<mask id="mask0_22_88" style="mask-type:alpha" maskUnits="userSpaceOnUse" x="0" y="0" width="24" height="24">
<rect y="0.114285" width="23.7714" height="23.7714" fill="#D9D9D9"/>
</mask>
<g mask="url(#mask0_22_88)">
<path d="M4.95236 20.419C4.3206 20.419 3.87159 20.1372 3.60532 19.5734C3.33888 19.0095 3.40318 18.4851 3.79821 18.0001L9.40951 11.1809V5.06667H8.22861C8.01814 5.06667 7.84167 4.99543 7.6992 4.85297C7.5569 4.71051 7.48576 4.53404 7.48576 4.32356C7.48576 4.11292 7.5569 3.93653 7.6992 3.7944C7.84167 3.6521 8.01814 3.58095 8.22861 3.58095H15.5428C15.7533 3.58095 15.9297 3.65218 16.0722 3.79465C16.2145 3.93711 16.2856 4.11358 16.2856 4.32406C16.2856 4.5347 16.2145 4.71109 16.0722 4.85322C15.9297 4.99552 15.7533 5.06667 15.5428 5.06667H14.3619V11.1809L19.9732 18.0001C20.3682 18.4851 20.4325 19.0095 20.1661 19.5734C19.8998 20.1372 19.4508 20.419 18.819 20.419H4.95236ZM4.95236 18.9333H18.819L12.8762 11.7029V5.06667H10.8952V11.7029L4.95236 18.9333Z" fill="black" fill-opacity="0.75"/>
</g>
</svg>
