<svg width="24" height="24" viewBox="0 0 24 24" fill="none" xmlns="http://www.w3.org/2000/svg">
<mask id="mask0_6_309" style="mask-type:alpha" maskUnits="userSpaceOnUse" x="0" y="0" width="24" height="24">
<rect x="0.143066" y="0.114288" width="23.7714" height="23.7714" fill="#D9D9D9"/>
</mask>
<g mask="url(#mask0_6_309)">
<path d="M8.18092 11.8856V10.1335H9.93307V11.8856H8.18092ZM14.1238 11.8856V10.1335H15.8759V11.8856H14.1238ZM3.60938 21.4095V14.1904H4.59985V10.0191C4.59985 8.99309 4.79349 8.02894 5.18077 7.12662C5.56804 6.22446 6.09828 5.43653 6.77147 4.76285C7.4445 4.08899 8.23358 3.55851 9.13871 3.1714C10.044 2.78412 11.0072 2.59048 12.0284 2.59048C13.0544 2.59048 14.0185 2.78412 14.9209 3.1714C15.823 3.55868 16.6109 4.08916 17.2846 4.76285C17.9583 5.43653 18.4888 6.22446 18.8761 7.12662C19.2634 8.02894 19.457 8.99309 19.457 10.0191V14.1904H20.4475V21.4095H3.60938ZM5.09509 19.9238H7.32366V15.6762H5.09509V19.9238ZM8.80938 19.9238H11.2856V15.6762H8.80938V19.9238ZM6.08557 14.1904H11.2856V4.13142C9.87232 4.28626 8.6523 4.91257 7.62551 6.01035C6.59888 7.10813 6.08557 8.44436 6.08557 10.0191V14.1904ZM12.7713 14.1904H17.9713V10.0191C17.9713 8.44436 17.458 7.10813 16.4313 6.01035C15.4045 4.91257 14.1845 4.28626 12.7713 4.13142V14.1904ZM12.7713 19.9238H15.2475V15.6762H12.7713V19.9238ZM16.7332 19.9238H18.9618V15.6762H16.7332V19.9238Z" fill="black"/>
</g>
</svg>
