<svg width="25" height="24" viewBox="0 0 25 24" fill="none" xmlns="http://www.w3.org/2000/svg">
<mask id="mask0_6_333" style="mask-type:alpha" maskUnits="userSpaceOnUse" x="0" y="0" width="25" height="24">
<rect x="0.914551" y="0.114288" width="23.7714" height="23.7714" fill="#D9D9D9"/>
</mask>
<g mask="url(#mask0_6_333)">
<path d="M12.8002 4.0762V2.59048H22.2097V4.0762H12.8002ZM12.8002 7.73328V6.24757H22.2097V7.73328H12.8002ZM12.8002 11.3904V9.90466H22.2097V11.3904H12.8002ZM19.1791 21.4095C17.3125 21.4095 15.4373 20.9755 13.5534 20.1075C11.6697 19.2396 9.93891 18.0152 8.36108 16.4344C6.78342 14.8534 5.56059 13.1225 4.69261 11.2418C3.82462 9.36121 3.39062 7.48765 3.39062 5.62109C3.39062 5.32115 3.48967 5.07121 3.68777 4.8713C3.88586 4.67139 4.13348 4.57144 4.43063 4.57144H7.66106C7.91116 4.57144 8.13179 4.65307 8.32295 4.81633C8.51411 4.97943 8.63569 5.18099 8.68769 5.42102L9.25548 8.33525C9.29477 8.60565 9.28652 8.838 9.23072 9.03229C9.17476 9.22659 9.07439 9.38977 8.92962 9.52184L6.64211 11.7487C7.01024 12.4229 7.43086 13.0606 7.90398 13.662C8.37693 14.2632 8.88901 14.8375 9.44021 15.3847C9.98365 15.9283 10.5614 16.4331 11.1735 16.8992C11.7857 17.3652 12.4466 17.7988 13.1565 18.2001L15.3791 15.9582C15.5341 15.7969 15.7218 15.6838 15.9422 15.619C16.1624 15.5542 16.3913 15.5384 16.6288 15.5714L19.3791 16.1315C19.6292 16.1976 19.8334 16.3252 19.9915 16.5144C20.1497 16.7035 20.2287 16.9181 20.2287 17.1582V20.3695C20.2287 20.6667 20.1288 20.9143 19.9289 21.1124C19.7289 21.3105 19.479 21.4095 19.1791 21.4095ZM5.93912 10.3429L7.70687 8.65146C7.73857 8.62603 7.7592 8.59112 7.76878 8.54671C7.77835 8.50231 7.77679 8.46104 7.76407 8.4229L7.33346 6.20944C7.32075 6.15876 7.29855 6.12071 7.26686 6.09528C7.23516 6.06986 7.19389 6.05715 7.14304 6.05715H5.02491C4.98678 6.05715 4.955 6.06986 4.92958 6.09528C4.90432 6.12071 4.89169 6.15248 4.89169 6.19062C4.94237 6.86744 5.05314 7.555 5.224 8.25328C5.39469 8.95174 5.63306 9.64829 5.93912 10.3429ZM14.5563 18.9029C15.2128 19.2089 15.8975 19.4429 16.6105 19.6049C17.3237 19.7667 17.99 19.8628 18.6095 19.8934C18.6477 19.8934 18.6795 19.8806 18.7049 19.8552C18.7303 19.8298 18.743 19.798 18.743 19.7599V17.6762C18.743 17.6253 18.7303 17.5841 18.7049 17.5524C18.6795 17.5207 18.6414 17.4985 18.5907 17.4858L16.5107 17.0628C16.4726 17.0501 16.4392 17.0485 16.4107 17.0581C16.3821 17.0677 16.3519 17.0883 16.3201 17.12L14.5563 18.9029Z" fill="black" fill-opacity="0.75"/>
</g>
</svg>
