<svg width="24" height="30" viewBox="0 0 24 30" fill="none" xmlns="http://www.w3.org/2000/svg">
<g filter="url(#filter0_d_22_94)">
<mask id="mask0_22_94" style="mask-type:alpha" maskUnits="userSpaceOnUse" x="0" y="0" width="24" height="24">
<rect y="0.114285" width="23.7714" height="23.7714" fill="#D9D9D9"/>
</mask>
<g mask="url(#mask0_22_94)">
<path d="M8.17132 18.3046H15.5999V16.8189H8.17132V18.3046ZM8.17132 15.5239H15.5999V14.0382H8.17132V15.5239ZM11.8856 12.2877C12.937 11.3352 13.8189 10.526 14.5314 9.86008C15.2437 9.19398 15.5999 8.44955 15.5999 7.6268C15.5999 7.0959 15.4107 6.64127 15.0323 6.26291C14.6538 5.88455 14.1992 5.69537 13.6685 5.69537C13.271 5.69537 12.9319 5.78138 12.6512 5.95339C12.3706 6.1254 12.1154 6.35428 11.8856 6.64004C11.6558 6.35428 11.4006 6.1254 11.12 5.95339C10.8393 5.78138 10.5003 5.69537 10.1027 5.69537C9.57202 5.69537 9.11739 5.88455 8.73886 6.26291C8.3605 6.64127 8.17132 7.0959 8.17132 7.6268C8.17132 8.44955 8.5151 9.1816 9.20265 9.82293C9.89037 10.4641 10.7847 11.2857 11.8856 12.2877ZM17.5236 21.4095H6.24757C5.74721 21.4095 5.3237 21.2362 4.97703 20.8895C4.63036 20.5429 4.45703 20.1193 4.45703 19.619V4.38101C4.45703 3.88065 4.63036 3.45714 4.97703 3.11048C5.3237 2.76381 5.74721 2.59048 6.24757 2.59048H17.5236C18.024 2.59048 18.4475 2.76381 18.7942 3.11048C19.1408 3.45714 19.3142 3.88065 19.3142 4.38101V19.619C19.3142 20.1193 19.1408 20.5429 18.7942 20.8895C18.4475 21.2362 18.024 21.4095 17.5236 21.4095ZM6.24757 19.9238H17.5236C17.6126 19.9238 17.6857 19.8953 17.7428 19.8381C17.7999 19.781 17.8285 19.708 17.8285 19.619V4.38101C17.8285 4.29203 17.7999 4.21898 17.7428 4.16187C17.6857 4.10475 17.6126 4.07619 17.5236 4.07619H6.24757C6.15859 4.07619 6.08554 4.10475 6.02842 4.16187C5.9713 4.21898 5.94275 4.29203 5.94275 4.38101V19.619C5.94275 19.708 5.9713 19.781 6.02842 19.8381C6.08554 19.8953 6.15859 19.9238 6.24757 19.9238Z" fill="black" fill-opacity="0.75"/>
</g>
</g>
<defs>
<filter id="filter0_d_22_94" x="0.457031" y="2.59048" width="22.8569" height="26.819" filterUnits="userSpaceOnUse" color-interpolation-filters="sRGB">
<feFlood flood-opacity="0" result="BackgroundImageFix"/>
<feColorMatrix in="SourceAlpha" type="matrix" values="0 0 0 0 0 0 0 0 0 0 0 0 0 0 0 0 0 0 127 0" result="hardAlpha"/>
<feOffset dy="4"/>
<feGaussianBlur stdDeviation="2"/>
<feComposite in2="hardAlpha" operator="out"/>
<feColorMatrix type="matrix" values="0 0 0 0 0 0 0 0 0 0 0 0 0 0 0 0 0 0 0.25 0"/>
<feBlend mode="normal" in2="BackgroundImageFix" result="effect1_dropShadow_22_94"/>
<feBlend mode="normal" in="SourceGraphic" in2="effect1_dropShadow_22_94" result="shape"/>
</filter>
</defs>
</svg>
