<svg width="25" height="24" viewBox="0 0 25 24" fill="none" xmlns="http://www.w3.org/2000/svg">
<mask id="mask0_6_327" style="mask-type:alpha" maskUnits="userSpaceOnUse" x="0" y="0" width="25" height="24">
<rect x="0.686035" y="0.114288" width="23.7714" height="23.7714" fill="#D9D9D9"/>
</mask>
<g mask="url(#mask0_6_327)">
<path d="M7.12426 21.4095V17.4172C6.18331 16.5588 5.45283 15.575 4.93283 14.4658C4.41283 13.3565 4.15283 12.2021 4.15283 11.0026C4.15283 8.6659 4.97138 6.67975 6.60847 5.04414C8.2454 3.40837 10.2332 2.59048 12.5719 2.59048C14.4957 2.59048 16.216 3.16546 17.7328 4.3154C19.2497 5.46518 20.2348 6.95692 20.6881 8.79062L21.8452 13.3612C21.9195 13.6436 21.8671 13.9001 21.688 14.1305C21.509 14.361 21.2703 14.4762 20.9719 14.4762H19.01V17.638C19.01 18.1305 18.8347 18.552 18.484 18.9026C18.1334 19.2533 17.7119 19.4286 17.2194 19.4286H15.0481V21.4095H13.5624V17.9429H17.2194C17.3084 17.9429 17.3815 17.9143 17.4386 17.8572C17.4957 17.8001 17.5243 17.727 17.5243 17.638V12.9905H20.1986L19.2576 9.15239C18.8779 7.64389 18.0659 6.42074 16.8215 5.48292C15.577 4.54511 14.1604 4.0762 12.5719 4.0762C10.657 4.0762 9.02267 4.74568 7.66902 6.08464C6.31537 7.4236 5.63855 9.05186 5.63855 10.9694C5.63855 11.9584 5.84077 12.8979 6.24521 13.7878C6.64966 14.6778 7.22331 15.4688 7.96617 16.161L8.60998 16.7543V21.4095H7.12426ZM12.4763 15.8666C12.7191 15.8666 12.9228 15.7845 13.0872 15.6204C13.2516 15.4562 13.3338 15.2526 13.3338 15.0098C13.3338 14.7672 13.2517 14.5636 13.0874 14.3992C12.9232 14.2346 12.7197 14.1523 12.477 14.1523C12.2342 14.1523 12.0306 14.2344 11.8662 14.3987C11.7017 14.5629 11.6195 14.7665 11.6195 15.0093C11.6195 15.252 11.7017 15.4555 11.8659 15.62C12.03 15.7844 12.2335 15.8666 12.4763 15.8666ZM11.8956 12.9259H13.0919C13.0919 12.5703 13.1503 12.2613 13.2672 11.999C13.3839 11.7369 13.6073 11.4273 13.9375 11.0704C14.2284 10.7467 14.5078 10.4188 14.7757 10.0867C15.0436 9.75468 15.1776 9.33852 15.1776 8.83816C15.1776 8.18214 14.9284 7.62763 14.43 7.17466C13.9316 6.72168 13.3052 6.49519 12.5508 6.49519C11.9478 6.49519 11.3987 6.66283 10.9034 6.9981C10.4082 7.33338 10.05 7.77464 9.82901 8.32188L10.9052 8.78666C11.0461 8.43619 11.2674 8.15432 11.569 7.94104C11.8706 7.72759 12.1979 7.62087 12.5508 7.62087C12.9521 7.62087 13.2883 7.73411 13.5594 7.9606C13.8306 8.18709 13.9662 8.47961 13.9662 8.83816C13.9662 9.19754 13.8583 9.51185 13.6423 9.78109C13.4264 10.0502 13.1814 10.325 12.9072 10.6057C12.577 10.9461 12.3259 11.2896 12.1539 11.6363C11.9817 11.9829 11.8956 12.4128 11.8956 12.9259Z" fill="black" fill-opacity="0.75"/>
</g>
</svg>
