<svg width="24" height="24" viewBox="0 0 24 24" fill="none" xmlns="http://www.w3.org/2000/svg">
<mask id="mask0_22_82" style="mask-type:alpha" maskUnits="userSpaceOnUse" x="0" y="0" width="24" height="24">
<rect y="0.114288" width="23.7714" height="23.7714" fill="#D9D9D9"/>
</mask>
<g mask="url(#mask0_22_82)">
<path d="M6.20007 19.021L8.40388 18.1239C8.21338 17.5626 8.04475 16.9914 7.89799 16.4103C7.7514 15.8294 7.63998 15.2437 7.56371 14.6532L6.33329 15.4838C6.28888 15.5154 6.25554 15.5519 6.23325 15.5932C6.21113 15.6345 6.20007 15.6805 6.20007 15.7314V19.021ZM9.9047 17.9429H13.8666C14.1637 17.2127 14.4031 16.373 14.5847 15.4238C14.7663 14.4746 14.8571 13.4952 14.8571 12.4856C14.8571 10.9213 14.6069 9.45943 14.1065 8.1C13.6064 6.74057 12.8661 5.5695 11.8857 4.58678C10.9052 5.5695 10.1649 6.74057 9.66476 8.1C9.1644 9.45943 8.91422 10.9213 8.91422 12.4856C8.91422 13.4952 9.00502 14.4746 9.1866 15.4238C9.36819 16.373 9.60756 17.2127 9.9047 17.9429ZM11.8857 12.7429C11.4044 12.7429 10.9952 12.5743 10.658 12.2372C10.3209 11.9 10.1523 11.4907 10.1523 11.0095C10.1523 10.5283 10.3209 10.1191 10.658 9.78183C10.9952 9.44474 11.4044 9.27619 11.8857 9.27619C12.3669 9.27619 12.7761 9.44474 13.1133 9.78183C13.4504 10.1191 13.619 10.5283 13.619 11.0095C13.619 11.4907 13.4504 11.9 13.1133 12.2372C12.7761 12.5743 12.3669 12.7429 11.8857 12.7429ZM17.5712 19.021V15.741C17.5712 15.6902 17.5602 15.6426 17.5381 15.5982C17.5158 15.5536 17.4824 15.5154 17.438 15.4838L16.2076 14.6532C16.1313 15.2437 16.012 15.8628 15.8495 16.5104C15.6869 17.158 15.5262 17.699 15.3674 18.1333L17.5712 19.021ZM11.8857 2.67046C13.3866 3.87174 14.5046 5.31082 15.2399 6.9877C15.9752 8.66441 16.3428 10.5764 16.3428 12.7238C16.3428 12.7619 16.3444 12.8016 16.3475 12.8429C16.3506 12.8842 16.3491 12.927 16.3428 12.9714L18.2418 14.2437C18.497 14.4063 18.6967 14.6219 18.8408 14.8905C18.9849 15.159 19.0569 15.4426 19.0569 15.741V21.2094L14.6246 19.4286H9.13708L4.71436 21.2094V15.7314C4.71436 15.4329 4.78484 15.1495 4.92582 14.881C5.06663 14.6125 5.26473 14.3969 5.52011 14.2343L7.42851 12.962V12.7238C7.42851 10.5764 7.79614 8.66441 8.5314 6.9877C9.26667 5.31082 10.3847 3.87174 11.8857 2.67046Z" fill="black"/>
</g>
</svg>
