<svg width="36" height="36" viewBox="0 0 36 36" fill="none" xmlns="http://www.w3.org/2000/svg">
<mask id="mask0_26_192" style="mask-type:alpha" maskUnits="userSpaceOnUse" x="0" y="0" width="36" height="36">
<rect width="36" height="36" fill="#D9D9D9"/>
</mask>
<g mask="url(#mask0_26_192)">
<path d="M17.6414 32.4768C15.7529 32.396 13.9774 31.9696 12.3149 31.1976C10.6524 30.4254 9.20775 29.4018 7.981 28.1268C6.754 26.8518 5.78375 25.3681 5.07025 23.6759C4.35675 21.9836 4 20.175 4 18.25C4 16.2808 4.3745 14.4294 5.1235 12.6959C5.8725 10.9621 6.88837 9.45387 8.17112 8.17112C9.45388 6.88837 10.9621 5.8725 12.6959 5.1235C14.4294 4.3745 16.2808 4 18.25 4C21.8788 4 25.0176 5.17025 27.6666 7.51075C30.3159 9.851 31.8809 12.7721 32.3616 16.2741H30.6366C30.3076 14.0779 29.4658 12.1091 28.111 10.3679C26.7563 8.62638 25.0328 7.33363 22.9405 6.48963V7.17888C22.9405 8.04438 22.6429 8.7925 22.0476 9.42325C21.4524 10.054 20.7221 10.3694 19.8569 10.3694H16.6664V13.5595C16.6664 13.974 16.5049 14.3238 16.1819 14.6088C15.8586 14.894 15.4845 15.0366 15.0595 15.0366H11.9759V18.25H15.6828V22.8797H13.5595L6.025 15.3595C5.91925 15.8402 5.839 16.3218 5.78425 16.804C5.7295 17.286 5.70213 17.768 5.70213 18.25C5.70213 21.5963 6.84438 24.4823 9.12888 26.908C11.4134 29.334 14.2509 30.623 17.6414 30.775V32.4768ZM32.0095 31.7327L26.8548 26.6065C26.3683 26.972 25.838 27.25 25.264 27.4405C24.69 27.6308 24.1074 27.7259 23.5161 27.7259C21.9236 27.7259 20.5685 27.1681 19.4508 26.0526C18.333 24.9374 17.7741 23.585 17.7741 21.9955C17.7741 20.4062 18.3319 19.0554 19.4474 17.9429C20.5626 16.8304 21.915 16.2741 23.5045 16.2741C25.0938 16.2741 26.4446 16.833 27.5571 17.9508C28.6696 19.0685 29.2259 20.4236 29.2259 22.0161C29.2259 22.6169 29.1245 23.2068 28.9218 23.7858C28.7188 24.3645 28.4375 24.9049 28.078 25.4069L33.2327 30.5095L32.0095 31.7327ZM23.4948 26.0241C24.6195 26.0241 25.5723 25.6355 26.353 24.8582C27.1338 24.081 27.5241 23.13 27.5241 22.0053C27.5241 20.8805 27.1355 19.9278 26.3582 19.147C25.581 18.3663 24.63 17.9759 23.5053 17.9759C22.3805 17.9759 21.4278 18.3645 20.647 19.1418C19.8663 19.919 19.4759 20.87 19.4759 21.9948C19.4759 23.1195 19.8645 24.0722 20.6418 24.853C21.419 25.6337 22.37 26.0241 23.4948 26.0241Z" fill="white"/>
</g>
</svg>
